<?xml version="1.0" encoding="UTF-8"?>
<svg width="30px" height="30px" viewBox="0 0 30 30" version="1.1" xmlns="http://www.w3.org/2000/svg" xmlns:xlink="http://www.w3.org/1999/xlink">
    <!-- Generator: Sketch 52.4 (67378) - http://www.bohemiancoding.com/sketch -->
    <title>icons</title>
    <desc>Created with Sketch.</desc>
    <g id="Category_Pages" stroke="none" stroke-width="1" fill="none" fill-rule="evenodd">
        <g id="Gadget-Insurance/-Category-landing-page-/-Desktop" transform="translate(-788.000000, -5080.000000)" fill="#E22E47">
            <g id="Group-25" transform="translate(-10.000000, 4825.000000)">
                <g id="Footer" transform="translate(13.000000, 0.000000)">
                    <g id="contact">
                        <g id="Group-22" transform="translate(454.000000, 220.000000)">
                            <g id="Group-3" transform="translate(236.000000, 1.000000)">
                                <g id="card">
                                    <g id="Group-7" transform="translate(33.000000, 21.000000)">
                                        <g id="icons" transform="translate(49.000000, 0.000000)">
                                            <path d="M40.65625,33.5664062 C40.65625,34.85875 39.6048438,35.9101562 38.3125,35.9101562 L37.140625,35.9101562 L37.140625,34.09375 L37.140625,27.2382812 L38.3125,27.2382812 C39.6048438,27.2382812 40.65625,28.2896875 40.65625,29.5820312 L40.65625,33.5664062 Z M38.3125,24.8945312 L35.96875,24.8945312 C35.3215234,24.8945312 34.796875,25.4191797 34.796875,26.0664062 L34.796875,34.09375 L34.796875,37.0820312 L34.796875,38.3125 C34.796875,38.9586719 34.2711719,39.484375 33.625,39.484375 L30.0507812,39.484375 L30.0507812,39.5215234 C29.6510547,38.8006445 28.8826562,38.3125 28,38.3125 C26.7056055,38.3125 25.65625,39.3618555 25.65625,40.65625 C25.65625,41.9506445 26.7056055,43 28,43 C28.8826562,43 29.6510547,42.5118555 30.0507812,41.7909766 L30.0507812,41.828125 L33.625,41.828125 C35.5635156,41.828125 37.140625,40.2510156 37.140625,38.3125 L37.140625,38.2539062 L38.3125,38.2539062 C40.8971875,38.2539062 43,36.1510938 43,33.5664062 L43,29.5820312 C43,26.9973437 40.8971875,24.8945312 38.3125,24.8945312 Z M18.859375,35.9101562 L17.6875,35.9101562 C16.3951562,35.9101562 15.34375,34.85875 15.34375,33.5664062 L15.34375,29.5820312 C15.34375,28.2896875 16.3951562,27.2382812 17.6875,27.2382812 L18.859375,27.2382812 L18.859375,35.9101562 Z M20.03125,24.8945312 L17.7156836,24.8945312 C18.1068555,19.5625 22.5698828,15.34375 28,15.34375 C32.2969141,15.34375 36.1850781,18.0501953 37.675293,22.078457 C37.8998242,22.6854297 38.5738867,22.9954492 39.1809766,22.7709766 C39.7879492,22.5463867 40.0980273,21.8723242 39.8734961,21.265293 C38.985332,18.8643555 37.4074609,16.8098242 35.3105664,15.3237695 C33.1654492,13.8035547 30.6374805,13 28,13 C24.6194336,13 21.4411328,14.3164844 19.0506836,16.7069336 C16.6914062,19.0662109 15.3791992,22.1930078 15.345332,25.5242383 C13.9448242,26.3357617 13,27.8501758 13,29.5820312 L13,33.5664062 C13,36.1510938 15.1028125,38.2539062 17.6875,38.2539062 L20.03125,38.2539062 C20.6784766,38.2539062 21.203125,37.7292578 21.203125,37.0820312 L21.203125,26.0664062 C21.203125,25.4191797 20.6784766,24.8945312 20.03125,24.8945312 Z" id="Fill-1"></path>
                                        </g>
                                    </g>
                                </g>
                            </g>
                        </g>
                    </g>
                </g>
            </g>
        </g>
    </g>
</svg>