<?xml version="1.0" encoding="utf-8"?>
<!-- Generator: Adobe Illustrator 19.0.1, SVG Export Plug-In . SVG Version: 6.00 Build 0)  -->
<svg version="1.1" id="Layer_1" xmlns="http://www.w3.org/2000/svg" xmlns:xlink="http://www.w3.org/1999/xlink" x="0px" y="0px"
	 viewBox="0 0 266.6 117.2" style="enable-background:new 0 0 266.6 117.2;" xml:space="preserve">
<style type="text/css">
	.st0{fill:#E56374;}
</style>
<path class="st0" d="M95,83c5.1,0,8.9-2.5,12.1-6.3c0.8-0.9,1.3-1.8,1.8-2.8c2.9,6.4,7.8,9.5,13.9,10.5c7.6,1.4,14.5-2.9,17.9-6.8
	c0.9-1,1.5-1.9,1.9-2.7c1,0.3,2.1,0.4,3.3,0.4c5.1,0,8.9-2.6,12.1-6.3c0.7-0.8,1.2-1.6,1.7-2.6c5.9,15.4,19.4,16.5,27.2,14
	c7.9-2.6,5.5-7.4-0.9-5c-5.8,2.3-17.5,0.2-12.5-42.1c1.7-14.5-4.4-18-15.5-9.2c-1.8,1.5-1.3,17.6-1.1,25.9c0.1,1.4,0.1,2.7,0.2,4
	c-0.1,2.5-0.7,9.1-3.1,11.8c-2.4,2.8-4.6-0.2-5.7-7.4c-0.8-6.1-0.5-12.4,1.1-17.8c3.7-12.1-0.9-19.2-14.5-12.3c-2,1-3.3,9-3.3,20.6
	c0,11.6,2.1,20.2,7.2,24.1c-0.5,0.4-1,1-1.5,1.6c-3.8,4.9-10.8,3.1-12.3,0.4c-4.3-8.2-4.4-17.5-2.5-33.9c1.8-14.6-4.3-18.1-15.3-9.3
	c-0.3,0.3-0.6,1.1-0.8,2.3c-8.7-2.9-23.1,5.7-25.6,22.6C78.4,72.8,84.7,83.2,95,83z M94.5,58c1-11.7,6.2-21,11.4-20.1
	c-0.4,5.8-0.1,14.4-0.1,19.8c0.1,1.4,0.1,2.8,0.2,4.1c-0.2,2.5-0.7,9.1-3.1,11.7C99.8,77.2,93.3,71.2,94.5,58z"/>
<path class="st0" d="M263.1,43c-10.8,18.1-26,15-29.7-0.9c0.4-0.2,1-0.5,1.5-0.8c14.4-7.7,23.1-24.7,17.1-32.9
	c-6.4-8.7-31.4-3-35.3,22.4c-1.5,10.2,0.1,18.6,3.7,24.5c-0.1,0.1-0.3,0.2-0.4,0.3c-13.2,12.2-28.7,3.2-26.2-25.6
	c1.1-12.9,5.5-21.9,9.2-17.5c2.1,2.5,1.2,9.4,4.3,10.5c6.2,2.2,10.5-9,6.1-14.9c-8.7-11.6-32,0.2-35.4,22.6
	c-3.2,21.4,7,39.4,22.7,39.1c9.7-0.2,17.3-4.9,21.8-10.5c0.2-0.3,0.4-0.5,0.6-0.8c4.1,4.4,9.8,6.8,16.5,6.7
	c10.3-0.2,23.7-10.8,26.5-20.3C267.6,39.8,265.8,38.6,263.1,43z M232.7,30c1.3-16,6.3-23.2,9.1-19.4c2.6,3.7,0,18.5-9.2,26.1
	C232.5,34.7,232.4,32.4,232.7,30z"/>
<path class="st0" d="M185.9,90.8c-33,12-71.8,17.5-110.4-9.4c-3.2-2.3-6.3-4.3-9.3-6.2c6.2-6,10.2-13.7,10-22.8
	C75.6,27.6,41,34,40.5,16.9c-0.1-7,6.8-12.5,17.3-10.7c9.4,1.8,7,20.7,8.1,21.3c7.5,4.3,17.9-3,14.9-14.6C79.2,6.8,71,1.2,60.7,0.2
	C44.3-1.5,28.8,9.2,29,22.6c0.6,22.7,26.7,18.6,27.1,37.2c0.1,2.9-0.7,5.8-2,8.5C34,57.9,23.9,60.1,16.8,65.5
	C4,75.3,6.4,95.2,29.8,92.2c8.3-1.1,18.2-4.3,26.7-9.4c3.1,2,6.1,4.4,9.7,6.9c36.4,26.6,82.9,35.2,124.1,20.3
	c20.6-7.5,23-28.2,20.6-35C208.9,69.8,205.5,83.7,185.9,90.8z M33.1,82.9C17,85,12.4,74.8,18.7,69.7c4.4-3.5,12.2-2.8,28.5,7
	C43,80.1,38.1,82.3,33.1,82.9z"/>
<path class="st0" d="M242.6,74.4c-8.3-5.9-16.3-5.9-21.8-4.8c-1.5,0.4-1.5,0.8-1.5,1.1c0,0.4,0,0.7,2.1,1c0,0,0,0,0.1,0
	c0.3,0.1,0.5,0.1,0.8,0.2c3.5,0.9,6.7,3.3,7.8,8.3C233,93.7,257.7,85,242.6,74.4z"/>
<path class="st0" d="M217.8,72.7c-0.7,0.1-1.9,0.5-0.8,1.2c0,0,0,0,0,0c1.7,1,3.5,2.8,4.5,5.1c3.3,7.4,9.4,3.5,5.3-2.3
	C224.3,73.2,220.5,72.6,217.8,72.7z"/>
<path class="st0" d="M36.8,59.2C36.8,59.2,36.9,59.2,36.8,59.2c1.9,0.4,1.7-0.9,0.9-1.8c-4.7-4.9-14.4-12.6-26.9-9.5
	C-7,52.4-1.4,70.3,17.3,61.2C24.1,57.9,31.8,57.8,36.8,59.2z"/>
<path class="st0" d="M37.9,55.5c0.7,0.8,1.8,1.9,2,2.5c0.3,0.6,0.7,1.2,1.4,1.1c0.7-0.1,1.1-5-0.9-8c-2.1-2.9-5-3.7-6.6-2.2
	c-1,0.9-1.2,2.3,0.6,3.5C36.2,53.7,37.2,54.7,37.9,55.5z"/>
</svg>
