<?xml version="1.0" encoding="utf-8"?>
<!-- Generator: Adobe Illustrator 23.0.1, SVG Export Plug-In . SVG Version: 6.00 Build 0)  -->
<svg version="1.1" id="Layer_1" xmlns:sketch="http://www.bohemiancoding.com/sketch/ns"
	 xmlns="http://www.w3.org/2000/svg" xmlns:xlink="http://www.w3.org/1999/xlink" x="0px" y="0px" viewBox="0 0 49 65"
	 style="enable-background:new 0 0 49 65;" xml:space="preserve">
<style type="text/css">
	.st0{fill:#E56374;}
</style>
<title>october-leaf</title>
<desc>Created with Sketch.</desc>
<g>
	<path class="st0" d="M20.7,38.7C20.7,38.7,20.7,38.7,20.7,38.7c1.1,0.2,1-0.5,0.5-1c-2.6-2.7-8-7.1-15-5.3
		c-10,2.5-6.8,12.5,3.6,7.4C13.6,38,17.9,37.9,20.7,38.7"/>
	<path class="st0" d="M22.7,36.7c0.4,0.5,1,1.1,1.1,1.4c0.1,0.3,0.4,0.6,0.8,0.6c0.4,0,0.6-2.8-0.5-4.5c-1.2-1.6-2.8-2.1-3.7-1.2
		c-0.5,0.5-0.7,1.3,0.3,2C21.7,35.6,22.3,36.2,22.7,36.7"/>
	<path class="st0" d="M19.4,53c-9,1.2-11.5-4.5-8.1-7.4c2.5-2,6.8-1.6,15.9,3.9C25,51.4,22.2,52.6,19.4,53 M39.7,49.2
		c-0.6-0.2-1.1-0.5-1.7-0.7c3.4-3.3,5.5-7.6,5.4-12.5c-0.3-13.8-19.6-10.3-19.9-19.8c-0.1-3.9,3.8-7,9.6-6c5.2,1,3.9,11.6,4.5,11.9
		c4.2,2.4,10-1.7,8.3-8.1c-0.8-3.4-5.4-6.6-11.2-7.1c-9.2-0.9-17.8,5-17.7,12.5C17.5,32,32.1,29.7,32.3,40.1
		c0.1,1.6-0.4,3.3-1.1,4.7c-11.3-5.8-16.9-4.5-20.8-1.5c-7.1,5.5-5.8,16.6,7.2,14.9c4.6-0.6,10.2-2.4,14.9-5.2l0.4-0.3
		c1.2,0.7,2.5,1.3,3.8,1.9c6.3,2.7,11.3-1.5,12.2-3.6C49.5,49.4,45.7,51.8,39.7,49.2"/>
</g>
</svg>
