<?xml version="1.0" encoding="utf-8"?>
<!-- Generator: Adobe Illustrator 23.0.1, SVG Export Plug-In . SVG Version: 6.00 Build 0)  -->
<svg version="1.1" id="Layer_1" xmlns="http://www.w3.org/2000/svg" xmlns:xlink="http://www.w3.org/1999/xlink" x="0px" y="0px"
	 viewBox="0 0 408 71" style="enable-background:new 0 0 408 71;" xml:space="preserve">
<style type="text/css">
	.st0{opacity:0.3;}
	.st1{fill:#E56374;}
</style>
<g class="st0">
	<path class="st1" d="M182.2,49.3c2.9,0,5.1-1.4,6.9-3.6c0.5-0.5,0.7-1,1-1.6c1.6,3.6,4.4,5.4,7.9,6c4.3,0.8,8.2-1.6,10.2-3.9
		c0.5-0.6,0.9-1.1,1.1-1.5c0.6,0.2,1.2,0.2,1.9,0.2c2.9,0,5.1-1.5,6.9-3.6c0.4-0.5,0.7-0.9,1-1.5c3.4,8.8,11,9.4,15.5,8
		c4.5-1.5,3.1-4.2-0.5-2.8c-3.3,1.3-9.9,0.1-7.1-23.9c1-8.2-2.5-10.2-8.8-5.2c-1,0.9-0.7,10-0.6,14.7c0.1,0.8,0.1,1.5,0.1,2.3
		c-0.1,1.4-0.4,5.2-1.8,6.7c-1.4,1.6-2.6-0.1-3.2-4.2c-0.5-3.5-0.3-7,0.6-10.1c2.1-6.9-0.5-10.9-8.2-7c-1.1,0.6-1.9,5.1-1.9,11.7
		s1.2,11.5,4.1,13.7c-0.3,0.2-0.6,0.6-0.9,0.9c-2.2,2.8-6.1,1.8-7,0.2c-2.4-4.7-2.5-9.9-1.4-19.3c1-8.3-2.4-10.3-8.7-5.3
		c-0.2,0.2-0.3,0.6-0.5,1.3c-4.9-1.6-13.1,3.2-14.5,12.8C172.8,43.5,176.4,49.5,182.2,49.3z M181.9,35.1c0.6-6.6,3.5-11.9,6.5-11.4
		c-0.2,3.3-0.1,8.2-0.1,11.3c0.1,0.8,0.1,1.6,0.1,2.3c-0.1,1.4-0.4,5.2-1.8,6.6C185,46,181.3,42.6,181.9,35.1z"/>
	<path class="st1" d="M277.8,26.6c-6.1,10.3-14.8,8.5-16.9-0.5c0.2-0.1,0.6-0.3,0.9-0.5c8.2-4.4,13.1-14,9.7-18.7
		c-3.6-4.9-17.8-1.7-20.1,12.7c-0.9,5.8,0.1,10.6,2.1,13.9c-0.1,0.1-0.2,0.1-0.2,0.2c-7.5,6.9-16.3,1.8-14.9-14.5
		c0.6-7.3,3.1-12.4,5.2-9.9c1.2,1.4,0.7,5.3,2.4,6c3.5,1.3,6-5.1,3.5-8.5c-4.9-6.6-18.2,0.1-20.1,12.8c-1.8,12.2,4,22.4,12.9,22.2
		c5.5-0.1,9.8-2.8,12.4-6c0.1-0.2,0.2-0.3,0.3-0.5c2.3,2.5,5.6,3.9,9.4,3.8c5.9-0.1,13.5-6.1,15.1-11.5
		C280.3,24.8,279.3,24.1,277.8,26.6z M260.5,19.2c0.7-9.1,3.6-13.2,5.2-11c1.5,2.1,0,10.5-5.2,14.8
		C260.4,21.9,260.3,20.6,260.5,19.2z"/>
	<path class="st1" d="M233.9,53.8c-18.8,6.8-40.8,9.9-62.7-5.3c-1.8-1.3-3.6-2.4-5.3-3.5c3.5-3.4,5.8-7.8,5.7-13
		c-0.3-14.1-20-10.5-20.3-20.2c-0.1-4,3.9-7.1,9.8-6.1c5.3,1,4,11.8,4.6,12.1c4.3,2.4,10.2-1.7,8.5-8.3c-0.9-3.5-5.6-6.6-11.4-7.2
		c-9.3-1-18.1,5.1-18,12.7c0.3,12.9,15.2,10.6,15.4,21.1c0.1,1.6-0.4,3.3-1.1,4.8c-11.4-5.9-17.2-4.7-21.2-1.6
		c-7.3,5.6-5.9,16.9,7.4,15.2c4.7-0.6,10.3-2.4,15.2-5.3c1.8,1.1,3.5,2.5,5.5,3.9c20.7,15.1,47.1,20,70.5,11.5
		c11.7-4.3,13.1-16,11.7-19.9C247,41.8,245,49.7,233.9,53.8z M147,49.3c-9.2,1.2-11.8-4.6-8.2-7.5c2.5-2,6.9-1.6,16.2,4
		C152.7,47.7,149.9,48.9,147,49.3z"/>
	<path class="st1" d="M266.1,44.5c-4.7-3.4-9.3-3.4-12.4-2.7c-0.9,0.2-0.9,0.5-0.9,0.6c0,0.2,0,0.4,1.2,0.6c0,0,0,0,0.1,0
		c0.2,0.1,0.3,0.1,0.5,0.1c2,0.5,3.8,1.9,4.4,4.7C260.7,55.4,274.7,50.5,266.1,44.5z"/>
	<path class="st1" d="M252,43.5c-0.4,0.1-1.1,0.3-0.5,0.7l0,0c1,0.6,2,1.6,2.6,2.9c1.9,4.2,5.3,2,3-1.3
		C255.7,43.8,253.5,43.4,252,43.5z"/>
	<path class="st1" d="M149.1,35.8C149.1,35.8,149.2,35.8,149.1,35.8c1.1,0.2,1-0.5,0.5-1c-2.7-2.8-8.2-7.2-15.3-5.4
		c-10.1,2.6-6.9,12.7,3.7,7.6C141.9,35.1,146.3,35,149.1,35.8z"/>
	<path class="st1" d="M149.8,33.7c0.4,0.5,1,1.1,1.1,1.4c0.2,0.3,0.4,0.7,0.8,0.6s0.6-2.8-0.5-4.5c-1.2-1.6-2.8-2.1-3.8-1.3
		c-0.6,0.5-0.7,1.3,0.3,2C148.8,32.7,149.4,33.3,149.8,33.7z"/>
</g>
</svg>
