<?xml version="1.0" encoding="UTF-8"?>
<svg width="24px" height="23px" viewBox="0 0 24 23" version="1.1" xmlns="http://www.w3.org/2000/svg" xmlns:xlink="http://www.w3.org/1999/xlink">
    <!-- Generator: Sketch 52.4 (67378) - http://www.bohemiancoding.com/sketch -->
    <title>Group 575</title>
    <desc>Created with Sketch.</desc>
    <g id="Category_Pages" stroke="none" stroke-width="1" fill="none" fill-rule="evenodd" stroke-linejoin="round">
        <g id="Gadget-Insurance/-Category-landing-page-/-Desktop" transform="translate(-488.000000, -369.000000)" stroke="#00B2A9">
            <g id="Group-15" transform="translate(-48.000000, -22.000000)">
                <g id="Group-37" transform="translate(259.000000, 252.000000)">
                    <g id="card" transform="translate(1.000000, 0.000000)">
                        <g id="Group-35">
                            <g id="Group-36">
                                <g id="Group-575" transform="translate(276.000000, 139.000000)">
                                    <polygon id="Stroke-2311" points="16 18.5 8 18.5 8.5 16.5 15.5 16.5"></polygon>
                                    <path d="M21.5,2 C21.5,1.172 20.829,0.5 20,0.5 L4,0.5 C3.172,0.5 2.5,1.172 2.5,2 L2.5,13.5 L0.5,20.5 L0.5,21 C0.5,21.828 1.172,22.5 2,22.5 L22,22.5 C22.829,22.5 23.5,21.828 23.5,21 L23.5,20.5 L21.5,13 L21.5,2 L21.5,2 Z" id="Stroke-2312"></path>
                                    <path d="M2.5,13.5 L21.5,13.5" id="Stroke-2313"></path>
                                    <path d="M0.5,20.5 L23.5,20.5" id="Stroke-2314"></path>
                                    <polygon id="Stroke-2315" points="4.5 11.5 19.5 11.5 19.5 2.5 4.5 2.5"></polygon>
                                </g>
                            </g>
                        </g>
                    </g>
                </g>
            </g>
        </g>
    </g>
</svg>