<?xml version="1.0" encoding="UTF-8"?>
<svg width="15px" height="24px" viewBox="0 0 15 24" version="1.1" xmlns="http://www.w3.org/2000/svg" xmlns:xlink="http://www.w3.org/1999/xlink">
    <!-- Generator: Sketch 52.4 (67378) - http://www.bohemiancoding.com/sketch -->
    <title>Group 678</title>
    <desc>Created with Sketch.</desc>
    <g id="Category_Pages" stroke="none" stroke-width="1" fill="none" fill-rule="evenodd" stroke-linejoin="round">
        <g id="Gadget-Insurance/-Category-landing-page-/-Desktop" transform="translate(-271.000000, -369.000000)" stroke="#00B2A9">
            <g id="Group-15" transform="translate(-48.000000, -22.000000)">
                <g id="Group-37" transform="translate(259.000000, 252.000000)">
                    <g id="card" transform="translate(1.000000, 0.000000)">
                        <g id="Group-35">
                            <g id="Group-36">
                                <g id="Group-678" transform="translate(59.000000, 139.000000)">
                                    <path d="M13.5005,21.5 C13.5005,22.604 12.6055,23.5 11.5005,23.5 L2.5005,23.5 C1.3955,23.5 0.5005,22.604 0.5005,21.5 L0.5005,2.5 C0.5005,1.396 1.3955,0.5 2.5005,0.5 L11.5005,0.5 C12.6055,0.5 13.5005,1.396 13.5005,2.5 L13.5005,21.5 L13.5005,21.5 Z" id="Stroke-5155" stroke-linecap="round"></path>
                                    <path d="M13.5005,19.5 L0.5005,19.5" id="Stroke-5156" stroke-linecap="round"></path>
                                    <path d="M13.5005,4.5 L0.5005,4.5" id="Stroke-5157" stroke-linecap="round"></path>
                                    <path d="M4.5005,2.5 L9.5005,2.5" id="Stroke-5158" stroke-linecap="round"></path>
                                    <path d="M7.0005,22 C6.7245,22 6.5005,21.776 6.5005,21.5 C6.5005,21.224 6.7245,21 7.0005,21 C7.2765,21 7.5005,21.224 7.5005,21.5 C7.5005,21.776 7.2765,22 7.0005,22 L7.0005,22 Z" id="Stroke-5159"></path>
                                </g>
                            </g>
                        </g>
                    </g>
                </g>
            </g>
        </g>
    </g>
</svg>