<?xml version="1.0" encoding="UTF-8"?>
<svg width="24px" height="24px" viewBox="0 0 24 24" version="1.1" xmlns="http://www.w3.org/2000/svg" xmlns:xlink="http://www.w3.org/1999/xlink">
    <!-- Generator: Sketch 52.4 (67378) - http://www.bohemiancoding.com/sketch -->
    <title>Group 758</title>
    <desc>Created with Sketch.</desc>
    <g id="Category_Pages" stroke="none" stroke-width="1" fill="none" fill-rule="evenodd">
        <g id="Gadget-Insurance/-Category-landing-page-/-Desktop" transform="translate(-377.000000, -369.000000)">
            <g id="Group-15" transform="translate(-48.000000, -22.000000)">
                <g id="Group-37" transform="translate(259.000000, 252.000000)">
                    <g id="card" transform="translate(1.000000, 0.000000)">
                        <g id="Group-35">
                            <g id="Group-36">
                                <g id="Group-758" transform="translate(165.000000, 139.000000)">
                                    <path d="M7.5,17.5 L2.5,17.5 C1.396,17.5 0.5,16.604 0.5,15.5 L0.5,2.5 C0.5,1.396 1.396,0.5 2.5,0.5 L21.5,0.5 C22.605,0.5 23.5,1.396 23.5,2.5 L23.5,11.5" id="Stroke-5470" stroke="#00B2A9" stroke-linecap="round" stroke-linejoin="round"></path>
                                    <polyline id="Stroke-5471" stroke="#00B2A9" stroke-linecap="round" stroke-linejoin="round" points="7.5 15.5 4.5 15.5 4.5 2.5 20.5 2.5 20.5 11.5"></polyline>
                                    <path d="M22,8.5 C21.725,8.5 21.5,8.724 21.5,9 C21.5,9.276 21.725,9.5 22,9.5 C22.276,9.5 22.5,9.276 22.5,9 C22.5,8.724 22.276,8.5 22,8.5" id="Fill-5472" fill="#15B9B1"></path>
                                    <path d="M17.5,7.9696 C17.5,7.4346 17.282,6.9996 16.75,6.9996 L15.302,6.9996 C14.77,6.9996 14.5,7.4346 14.5,7.9696 L14.5,17.1906 L12.78,15.1326 C12.598,14.8996 12.279,14.7646 11.983,14.7646 L10.984,14.7836 C10.644,14.7836 10.318,14.9636 10.145,15.2586 C9.971,15.5546 9.96,15.9196 10.123,16.2196 L13.859,22.9956 C14.029,23.3066 14.35,23.4996 14.703,23.4996 L21.089,23.4996 C21.48,23.4996 21.831,23.2626 21.98,22.9006 L23.5,16.2196 C23.5,15.7936 23.315,15.3746 22.91,15.2496 L17.5,13.3086 L17.5,7.9696 Z" id="Stroke-5473" stroke="#00B2A9" stroke-linejoin="round"></path>
                                    <path d="M3,9 C3,9.276 2.776,9.5 2.5,9.5 C2.224,9.5 2,9.276 2,9 C2,8.724 2.224,8.5 2.5,8.5 C2.776,8.5 3,8.724 3,9 L3,9 Z" id="Stroke-5474" stroke="#00B2A9" stroke-linejoin="round"></path>
                                </g>
                            </g>
                        </g>
                    </g>
                </g>
            </g>
        </g>
    </g>
</svg>