<?xml version="1.0" encoding="UTF-8"?>
<svg width="31px" height="31px" viewBox="0 0 31 31" version="1.1" xmlns="http://www.w3.org/2000/svg" xmlns:xlink="http://www.w3.org/1999/xlink">
    <!-- Generator: Sketch 52.4 (67378) - http://www.bohemiancoding.com/sketch -->
    <title>Group 7</title>
    <desc>Created with Sketch.</desc>
    <g id="Category_Pages" stroke="none" stroke-width="1" fill="none" fill-rule="evenodd">
        <g id="Gadget-Insurance/-Category-landing-page-/-Desktop" transform="translate(-552.000000, -5080.000000)" fill="#E22E47">
            <g id="Group-25" transform="translate(-10.000000, 4825.000000)">
                <g id="Footer" transform="translate(13.000000, 0.000000)">
                    <g id="contact">
                        <g id="Group-22" transform="translate(454.000000, 220.000000)">
                            <g id="Group-3">
                                <g id="card">
                                    <g id="Group-7" transform="translate(33.000000, 21.000000)">
                                        <g id="icons" transform="translate(49.000000, 0.000000)">
                                            <g id="Group-7" transform="translate(13.000000, 14.000000)">
                                                <path d="M25.9573162,25.4566053 C25.951142,25.4566053 25.951142,25.4630789 25.9573162,25.4566053 C25.7105879,25.7221053 25.4573689,25.9621053 25.1849151,26.2272895 C24.7733848,26.6189474 24.3553636,27.0293947 23.9626724,27.4904474 C23.3232528,28.1726316 22.5696908,28.4945789 21.581828,28.4945789 C21.4868412,28.4945789 21.3854428,28.4945789 21.2905352,28.4884211 C19.4096381,28.3684211 17.6620391,27.6357105 16.3510629,27.0106053 C12.7670523,25.2799211 9.6197436,22.823 7.00451932,19.7094737 C4.84499426,17.1134474 3.4013531,14.7136053 2.44499426,12.1366842 C1.85631352,10.5642105 1.64077262,9.33902632 1.73568027,8.18315789 C1.79908397,7.44428947 2.08412354,6.8315 2.60979637,6.30728947 L4.76892565,4.15344737 C5.0793742,3.863 5.4086618,3.70510526 5.73153779,3.70510526 C6.13071985,3.70510526 6.45351668,3.94534211 6.65599689,4.14728947 L6.67515257,4.16607895 C7.0613531,4.52631579 7.42871457,4.89886842 7.8149151,5.29668421 C8.01122117,5.49894737 8.21378054,5.70097368 8.41657737,5.90947368 L10.1453373,7.63360526 C10.8166565,8.30315789 10.8166565,8.92210526 10.1453373,9.59157895 C9.9616961,9.77473684 9.78454571,9.95797368 9.60082539,10.1346579 C9.06874096,10.6777368 8.56222381,11.1831579 8.01122117,11.6757105 C7.99855626,11.6883421 7.98589135,11.6948158 7.97971721,11.7074474 C7.43488872,12.2505263 7.53628713,12.7809737 7.65042961,13.1408158 L7.66926866,13.1978947 C8.11887288,14.2840526 8.75211827,15.3072895 9.71465125,16.5263158 L9.72114201,16.5324737 C11.468741,18.6797632 13.3115642,20.3536842 15.3442819,21.6357105 C15.6039916,21.8000789 15.8698755,21.9326316 16.1231737,22.0587895 C16.3510629,22.1726316 16.5665246,22.2799211 16.7502449,22.3936842 C16.7752581,22.4063158 16.8005879,22.4251842 16.8259969,22.4378158 C17.0414586,22.5451053 17.244018,22.5957105 17.452989,22.5957105 C17.9786618,22.5957105 18.3079494,22.2673684 18.4156011,22.1599211 L20.5812212,20 C20.7964454,19.7850263 21.138398,19.5263158 21.5372634,19.5263158 C21.9299547,19.5263158 22.2530681,19.7723947 22.4494534,19.9873684 L22.4618016,20 L25.951142,23.4798421 C26.6032264,24.1240526 26.6032264,24.7874474 25.9573162,25.4566053 Z M23.6905352,18.8062368 C23.076208,18.1685 22.3353109,17.8273684 21.5499283,17.8273684 C20.7710365,17.8273684 20.0240444,18.1621053 19.3843082,18.8000789 L17.3834903,20.7894737 C17.2186882,20.7009737 17.0541235,20.6189474 16.8958122,20.5369211 C16.6676855,20.4230789 16.4524613,20.3157895 16.2688201,20.2020263 C14.3944138,19.0147368 12.6909837,17.4672105 11.0572106,15.4651842 C10.2656539,14.4672105 9.73380692,13.6271316 9.34728977,12.7747368 C9.86678845,12.3010526 10.3478966,11.8082632 10.8166565,11.3345789 C10.9938069,11.1578947 11.1712739,10.9747368 11.3485035,10.7976579 C12.6783188,9.47165789 12.6783188,7.75360526 11.3485035,6.42721053 L9.6197436,4.703 C9.42335837,4.50721053 9.22087816,4.30518421 9.03066708,4.10323684 C8.65095732,3.71157895 8.25177526,3.30728947 7.84024492,2.92826316 C7.22615521,2.32194737 6.49151141,2 5.71879373,2 C4.94647183,2 4.19908397,2.32194737 3.56583858,2.92826316 L3.55317368,2.94089474 L1.40021853,5.10728947 C0.589822752,5.91563158 0.127553623,6.90089474 0.0260760505,8.04413158 C-0.125981997,9.88826316 0.418767343,11.6063158 0.836550985,12.7303684 C1.86248766,15.4904474 3.39486233,18.0481842 5.68079901,20.7894737 C8.45465125,24.0926316 11.7918544,26.7009737 15.6039916,28.5389474 C17.0603768,29.2272895 19.0042819,30.0420263 21.1764718,30.1811316 C21.3093742,30.1872895 21.4488465,30.1934474 21.5753373,30.1934474 C23.0381341,30.1934474 24.2666301,29.6694737 25.2291631,28.6271316 C25.2356539,28.6145 25.2483188,28.6083421 25.2544929,28.5957105 C25.5837805,28.1978947 25.9638069,27.8376579 26.3626724,27.4524737 C26.6351262,27.1934474 26.913675,26.9221053 27.1860497,26.6377368 C27.8128043,25.9873684 28.142171,25.2293158 28.142171,24.4524737 C28.142171,23.6694737 27.8066301,22.9179737 27.166894,22.2863947 L23.6905352,18.8062368 Z" id="Fill-1"></path>
                                                <path d="M16.7035744,6.69120442 C18.3627565,6.96909916 19.8698014,7.75241495 21.0728884,8.952336 C22.2762921,10.1522571 23.0551839,11.655336 23.3399861,13.3101518 C23.4098805,13.7270728 23.7706721,14.0175992 24.1822024,14.0175992 C24.2329412,14.0175992 24.2771892,14.0114413 24.3278488,14.0049676 C24.7966087,13.9290992 25.1067407,13.4871518 25.0306721,13.0196255 C24.6890362,11.0175992 23.7391681,9.19225706 22.2890362,7.74594127 C20.8388251,6.29954653 19.0086668,5.35217811 17.0013581,5.01144127 C16.5325982,4.93557285 16.0956589,5.24488864 16.0134161,5.70594127 C15.9311734,6.1669939 16.2351312,6.615336 16.7035744,6.69120442" id="Fill-3"></path>
                                                <path d="M30.215229,13.2002656 C29.6515614,9.90366036 28.0937778,6.90366036 25.7002685,4.5160551 C23.3064427,2.12884457 20.2985271,0.57516036 16.9931445,0.0129761496 C16.5308754,-0.0690501662 16.0936986,0.246739307 16.0114559,0.707791939 C15.9353873,1.17531825 16.2458358,1.61102878 16.7142791,1.69313404 C19.6652817,2.19208141 22.3565746,3.58787089 24.4968648,5.71629194 C26.6374717,7.85102878 28.0303741,10.5352393 28.5307171,13.4784761 C28.6002949,13.8950814 28.9614031,14.1856077 29.3729334,14.1856077 C29.4236722,14.1856077 29.4679202,14.1794498 29.5185799,14.1729761 C29.980849,14.1035814 30.2974717,13.6613183 30.215229,13.2002656" id="Fill-5"></path>
                                            </g>
                                        </g>
                                    </g>
                                </g>
                            </g>
                        </g>
                    </g>
                </g>
            </g>
        </g>
    </g>
</svg>