<?xml version="1.0" encoding="UTF-8"?>
<svg width="19px" height="19px" viewBox="0 0 19 19" version="1.1" xmlns="http://www.w3.org/2000/svg" xmlns:xlink="http://www.w3.org/1999/xlink">
    <!-- Generator: Sketch 52.4 (67378) - http://www.bohemiancoding.com/sketch -->
    <title>info</title>
    <desc>Created with Sketch.</desc>
    <g id="Category_Pages" stroke="none" stroke-width="1" fill="none" fill-rule="evenodd">
        <g id="Gadget-Insurance/-Category-landing-page-/-Desktop" transform="translate(-635.000000, -301.000000)">
            <g id="Group-15" transform="translate(-89.000000, -21.000000)">
                <g id="Group-37" transform="translate(300.000000, 251.000000)">
                    <g id="card" transform="translate(1.000000, 0.000000)">
                        <g id="Group-35">
                            <g id="Group-36">
                                <g id="info" transform="translate(424.000000, 72.000000)">
                                    <circle id="Oval" stroke="#00B2A9" stroke-width="0.809999957" cx="8.5" cy="8.5" r="8.5"></circle>
                                    <g id="001-question-mark" transform="translate(5.666667, 3.238095)" fill="#00B2A9">
                                        <path d="M2.8047138,0.0512897243 C1.25811448,0.0512897243 0,1.26894987 0,2.76554637 C0,3.07145689 0.256259259,3.31943108 0.572390572,3.31943108 C0.888521886,3.31943108 1.14478114,3.07145689 1.14478114,2.76554637 C1.14478114,1.87977393 1.8893468,1.15905915 2.8047138,1.15905915 C3.72008081,1.15905915 4.46487542,1.87977393 4.46487542,2.76554637 C4.46487542,3.27506491 4.08412121,3.61559323 3.45695286,4.1158619 C2.8829596,4.57364762 2.23232323,5.09269298 2.23232323,5.91792581 L2.23232323,7.6951203 C2.23232323,8.00080927 2.48858249,8.24900501 2.8047138,8.24900501 C3.12084512,8.24900501 3.37710438,8.00080927 3.37710438,7.6951203 L3.37710438,5.91792581 C3.37710438,5.61522782 3.75161953,5.31640702 4.18514815,4.97045063 C4.81970034,4.4642 5.60965657,3.83415614 5.60965657,2.76554637 C5.60965657,1.26894987 4.35131313,0.0512897243 2.8047138,0.0512897243 Z" id="Fill-4"></path>
                                        <path d="M2.8047138,9.05147318 C2.39980471,9.05147318 2.07045118,9.37017845 2.07045118,9.76199649 C2.07045118,10.1538145 2.39980471,10.4725198 2.8047138,10.4725198 C3.2096229,10.4725198 3.53897643,10.1538145 3.53897643,9.76199649 C3.53897643,9.37017845 3.2096229,9.05147318 2.8047138,9.05147318 Z" id="Fill-5"></path>
                                    </g>
                                </g>
                            </g>
                        </g>
                    </g>
                </g>
            </g>
        </g>
    </g>
</svg>