<?xml version="1.0" encoding="utf-8"?>
<!-- Generator: Adobe Illustrator 23.0.0, SVG Export Plug-In . SVG Version: 6.00 Build 0)  -->
<svg version="1.1" id="Layer_1" xmlns="http://www.w3.org/2000/svg" xmlns:xlink="http://www.w3.org/1999/xlink" x="0px" y="0px"
	 viewBox="0 0 52 34.6" style="enable-background:new 0 0 52 34.6;" xml:space="preserve">
<style type="text/css">
	.st0{fill:none;stroke:#000000;stroke-width:2.1638;stroke-linecap:round;stroke-linejoin:round;}
</style>
<g>
	<g transform="translate(-284.000000, -59.000000)">
		<g id="Titles" transform="translate(144.000000, -5.000000)">
			<g id="Group-524" transform="translate(141.000000, 64.000000)">
				<polygon id="Stroke-1410" class="st0" points="2.2,33.5 8.7,33.5 8.7,29.2 2.2,29.2 				"/>
				<polygon id="Stroke-1411" class="st0" points="41.2,33.5 47.7,33.5 47.7,29.2 41.2,29.2 				"/>
				<polygon id="Stroke-1412" class="st0" points="17.4,31.4 32.6,31.4 32.6,24.9 17.4,24.9 				"/>
				<polyline id="Stroke-1413" class="st0" points="32.6,29.2 49.9,29.2 49.9,20.5 43.4,14.1 6.6,14.1 0.1,20.5 0.1,29.2 17.4,29.2 
									"/>
				<polygon id="Stroke-1414" class="st0" points="39.1,1.1 10.9,1.1 6.6,14.1 43.4,14.1 				"/>
				<polygon id="Stroke-1415" class="st0" points="0.1,14.1 6.6,14.1 6.6,9.7 0.1,9.7 				"/>
				<polygon id="Stroke-1416" class="st0" points="43.4,14.1 49.9,14.1 49.9,9.7 43.4,9.7 				"/>
				<polygon id="Stroke-1417" class="st0" points="0.1,24.9 8.7,24.9 8.7,20.5 0.1,20.5 				"/>
				<polygon id="Stroke-1418" class="st0" points="41.2,24.9 49.9,24.9 49.9,20.5 41.2,20.5 				"/>
				<path id="Stroke-1419" class="st0" d="M25,20.5v-2.2"/>
			</g>
		</g>
	</g>
</g>
</svg>
