<?xml version="1.0" encoding="utf-8"?>
<svg version="1.1" id="Layer_1" xmlns="http://www.w3.org/2000/svg" xmlns:xlink="http://www.w3.org/1999/xlink" x="0px" y="0px"
	 viewBox="0 0 182.4 272.9" style="enable-background:new 0 0 182.4 272.9;" xml:space="preserve">
<style type="text/css">
	.st0{opacity:0.69;fill:#AA182C;}
</style>
<path class="st0" d="M477.7,34.4L477.7,34.4L477.7,34.4C477.6,34.3,477.6,34.3,477.7,34.4L477.7,34.4z M61,181.6
	c11.7,14.6,25.1,28.2,40.1,40.5c1.9,1.6,3.9,3.2,5.9,4.7c2,1.6,4.1,3.1,6.1,4.6c2.5,1.8,3.7,2.7,5,3.6c2.3,1.7,3.8,2.7,5.2,3.7
	c1.8,1.3,3.7,2.5,5.6,3.8c1.7,1.1,3.4,2.2,5.1,3.3c75.6,46.7,150.5,58.7,212,57.2c71.7-1.8,116.2-79.1,82.4-142.6
	c-17.4-32.8-51.9-52.5-88.9-51.2c-32,1.1-73-6-113.3-37.3C149.1,12.1,134.9-99,194.4-176.4c54.8-71.2,154.3-90.6,229.9-46.7
	c3.3,1.9,5.5,3.3,7.6,4.7c-1.7-1.1-3.4-2.1-5.1-3.2c0.5,0.3,1,0.6,1.5,0.9c1.2,0.8,2.4,1.5,3.6,2.3c2.5,1.6,5,3.4,7.4,5.1
	c-120-89.7-290-66.5-381.9,52.8C-22-57.3-17.3,84.5,61,181.6z M443.3-210.3L443.3-210.3L443.3-210.3z"/>
</svg>