<?xml version="1.0" encoding="utf-8"?>
<!-- Generator: Adobe Illustrator 23.0.1, SVG Export Plug-In . SVG Version: 6.00 Build 0)  -->
<svg version="1.1" id="Layer_1" xmlns="http://www.w3.org/2000/svg" xmlns:xlink="http://www.w3.org/1999/xlink" x="0px" y="0px"
	 viewBox="0 0 925.9 606" style="enable-background:new 0 0 925.9 606;" xml:space="preserve">
<style type="text/css">
	.st0{fill:#EA0044;}
	.st1{opacity:0.29;fill:#AA182C;enable-background:new    ;}
</style>
<path class="st0" d="M-219.6,293.6c-9.7-89.7-10.2-181.6-0.9-274.6c1.3-11.9,2.6-24.1,4.2-36c1.6-12.3,3.3-24.5,5.1-36.8
	c2.3-14.8,3.6-21.9,4.8-29.2c2.2-13.7,3.6-22,5.1-30.4c2-10.6,4-21.2,6.2-31.7c1.9-9.5,3.9-19.3,6-28.8
	c99-417.2,313-713.7,527.2-918.3c250-238.8,663.4-127.6,763.8,203.8c51.7,170.9,1.2,355.8-128.9,477.7
	c-112.4,105.6-227.7,269.8-259,514c-59.7,466.6,268.7,893.3,733.5,953.2c427.6,55.1,831.9-218.7,940.4-626.3
	c4.6-17.6,7.5-29.8,10.1-42c-2,9.5-4.3,18.9-6.6,28.3c0.6-2.7,1.4-5.3,2.1-8c1.5-6.6,3-13.4,4.5-20.3c2.9-14.1,5.5-28.4,7.8-42.8
	c-104.4,714.9-761,1216.5-1478,1124.1C307.8,1389.6-156.7,891.2-219.6,293.6z"/>
<path class="st1" d="M818.1,180.2C818.1,180.1,818.1,180.1,818.1,180.2l-0.3-0.1l0,0L818.1,180.2z M213.6,731.4
	c33.8,13.2,69.6,23.5,107.2,30.6c4.8,0.9,9.8,1.8,14.6,2.5c5,0.8,10,1.6,15,2.3c6.1,0.8,9,1.2,12,1.6c5.6,0.8,9.1,1.2,12.5,1.6
	c4.4,0.5,8.8,1,13.2,1.4c4,0.4,8,0.8,12,1.1c175.6,12.3,318.7-27.9,426-78.3c125.2-58.8,134.4-212,17.7-282.7
	c-60.2-36.5-138.9-39.7-203.1-8.8c-55.5,26.7-134.4,47.9-233.8,31.6C217,403.1,92.1,244.2,128,79.2
	c33-151.8,191.4-259.3,364.5-251.4c7.5,0.4,12.6,0.7,17.7,1.2c-4-0.4-7.9-0.6-11.9-0.9c1.1,0.1,2.3,0.1,3.4,0.2
	c2.8,0.2,5.6,0.5,8.5,0.7c5.9,0.6,11.8,1.3,17.7,2.1C235.3-212.2-44.4-43.8-99.6,210.7C-147.4,430.8-11.9,644,213.6,731.4z
	 M537.7-167.3L537.7-167.3L537.7-167.3z"/>
</svg>
