<?xml version="1.0" encoding="utf-8"?>
<!-- Generator: Adobe Illustrator 23.0.1, SVG Export Plug-In . SVG Version: 6.00 Build 0)  -->
<svg version="1.1" id="Layer_1" xmlns="http://www.w3.org/2000/svg" xmlns:xlink="http://www.w3.org/1999/xlink" x="0px" y="0px"
	 viewBox="0 0 28 27.6" style="enable-background:new 0 0 28 27.6;" xml:space="preserve">
<style type="text/css">
	.st0{filter:url(#Adobe_OpacityMaskFilter);}
	.st1{fill-rule:evenodd;clip-rule:evenodd;fill:#FFFFFF;}
	.st2{mask:url(#mask-2_1_);fill-rule:evenodd;clip-rule:evenodd;fill:#B81D31;}
	.st3{filter:url(#Adobe_OpacityMaskFilter_1_);}
	.st4{mask:url(#mask-4_1_);fill-rule:evenodd;clip-rule:evenodd;fill:#E21D48;}
	.st5{filter:url(#Adobe_OpacityMaskFilter_2_);}
	.st6{mask:url(#mask-6_1_);fill-rule:evenodd;clip-rule:evenodd;fill:#E93F50;}
</style>
<g id="Group">
	<g id="Group-3" transform="translate(0.000000, 4.156921)">
		<defs>
			<filter id="Adobe_OpacityMaskFilter" filterUnits="userSpaceOnUse" x="0" y="-0.6" width="20.5" height="24">
				<feColorMatrix  type="matrix" values="1 0 0 0 0  0 1 0 0 0  0 0 1 0 0  0 0 0 1 0"/>
			</filter>
		</defs>
		<mask maskUnits="userSpaceOnUse" x="0" y="-0.6" width="20.5" height="24" id="mask-2_1_">
			<g class="st0">
				<polygon id="path-1_1_" class="st1" points="0,-0.6 20.5,-0.6 20.5,23.4 0,23.4 				"/>
			</g>
		</mask>
		<path id="Fill-1" class="st2" d="M19.2,4.4c-1.8-3-5.1-5-8.9-5C4.8-0.6,0.3,3.7,0,9c0,0.1,0,0.2,0,0.3c0,0.1,0,0.2,0,0.3v0
			c0,0.1,0,0.1,0,0.2c0.1,7.4,6.2,13.5,13.7,13.6C8.1,23.3,3.6,18.8,3.6,13.2C3.6,7.6,8.3,3,14,3c0.4,0,0.8,0,1.2,0.1
			c-0.3,0-0.7-0.1-1-0.1c3,0.1,5.5,2.1,6.3,4.9C20.3,6.6,19.8,5.4,19.2,4.4"/>
	</g>
	<g id="Group-6" transform="translate(0.000000, 0.089790)">
		<defs>
			<filter id="Adobe_OpacityMaskFilter_1_" filterUnits="userSpaceOnUse" x="0" y="-0.1" width="28" height="17.1">
				<feColorMatrix  type="matrix" values="1 0 0 0 0  0 1 0 0 0  0 0 1 0 0  0 0 0 1 0"/>
			</filter>
		</defs>
		<mask maskUnits="userSpaceOnUse" x="0" y="-0.1" width="28" height="17.1" id="mask-4_1_">
			<g class="st3">
				<polygon id="path-3_1_" class="st1" points="0,-0.1 28,-0.1 28,17.1 0,17.1 				"/>
			</g>
		</mask>
		<path id="Fill-4" class="st4" d="M28,13.4L28,13.4c0-0.1,0-0.2,0-0.3c-0.1-3.2-1.3-6.1-3.3-8.4c-0.1-0.2-0.3-0.3-0.4-0.5
			C24.1,4.2,24,4,23.8,3.9c-0.1-0.1-0.2-0.2-0.2-0.2c-0.1-0.1-0.2-0.1-0.2-0.2c-0.1-0.1-0.2-0.1-0.3-0.2C23,3.1,22.9,3.1,22.8,3
			c-0.1-0.1-0.2-0.2-0.3-0.3c-0.1-0.1-0.1-0.1-0.2-0.1c-0.1-0.1-0.2-0.1-0.3-0.2c-0.1-0.1-0.2-0.1-0.3-0.2c0,0,0,0,0,0
			c-0.1-0.1-0.2-0.1-0.2-0.2c-0.1-0.1-0.2-0.1-0.3-0.2c-0.2-0.1-0.4-0.2-0.6-0.3c-0.1-0.1-0.2-0.1-0.3-0.1c-0.1-0.1-0.3-0.1-0.4-0.2
			c-0.1,0-0.1-0.1-0.2-0.1c-0.1,0-0.2-0.1-0.3-0.1c-0.1,0-0.2-0.1-0.3-0.1c0,0,0,0,0,0c-0.1,0-0.2-0.1-0.3-0.1
			c-0.1,0-0.2-0.1-0.4-0.1c-0.1,0-0.2-0.1-0.3-0.1c-0.1,0-0.2-0.1-0.3-0.1c-0.1,0-0.2,0-0.2-0.1c-0.5-0.1-1-0.2-1.5-0.3
			c-0.1,0-0.2,0-0.3,0C15.5,0,15.3,0,15.1,0c-0.1,0-0.2,0-0.2,0c-0.3,0-0.6,0-0.8,0C6.5-0.1,0.3,5.8,0,13.1
			c0.3-5.4,4.8-9.6,10.3-9.6c4.3,0,8.1,2.6,9.6,6.4h-5.4v0c-2,0-3.7,1.6-3.7,3.6s1.6,3.6,3.7,3.6h9.9v0C26.4,17,28,15.4,28,13.4
			L28,13.4z"/>
	</g>
	<g id="Group-9" transform="translate(3.970426, 8.224053)">
		<defs>
			<filter id="Adobe_OpacityMaskFilter_2_" filterUnits="userSpaceOnUse" x="-0.3" y="-1.1" width="20.6" height="20.4">
				<feColorMatrix  type="matrix" values="1 0 0 0 0  0 1 0 0 0  0 0 1 0 0  0 0 0 1 0"/>
			</filter>
		</defs>
		<mask maskUnits="userSpaceOnUse" x="-0.3" y="-1.1" width="20.6" height="20.4" id="mask-6_1_">
			<g class="st5">
				<polygon id="path-5_1_" class="st1" points="-0.3,-1.1 20.2,-1.1 20.2,19.4 -0.3,19.4 				"/>
			</g>
		</mask>
		<path id="Fill-7" class="st6" d="M16.7,5.3L16.7,5.3L16.7,5.3C16.7,5.3,16.7,5.3,16.7,5.3L16.7,5.3z M18.1,10.1
			c-1.3-0.6-2.8-0.4-3.8,0.5c-0.9,0.8-2.3,1.5-4.2,1.5c-3.7,0-6.7-2.9-6.7-6.6c0-3.3,2.5-6.2,5.8-6.6c0,0,0,0,0,0c0.1,0,0.2,0,0.3,0
			C9.4-1,9.4-1,9.3-1c0,0,0,0,0.1,0c0.1,0,0.1,0,0.2,0c0.1,0,0.2,0,0.3,0C4.2-1-0.3,3.6-0.3,9.1c0,4.8,3.4,8.9,8,9.9
			c0.7,0.2,1.4,0.3,2.1,0.3c0.1,0,0.2,0,0.3,0c0.1,0,0.2,0,0.3,0c0,0,0,0,0.1,0c0.1,0,0.1,0,0.2,0c0,0,0,0,0,0c0.1,0,0.1,0,0.2,0
			c0.1,0,0.2,0,0.3,0c0.1,0,0.2,0,0.2,0c0,0,0,0,0,0c3.3-0.3,5.8-1.7,7.6-3.1C21,14.5,20.6,11.2,18.1,10.1z M10-1.1L10-1.1
			C10-1.1,10-1.1,10-1.1L10-1.1z"/>
	</g>
</g>
</svg>
