<svg width="128px" height="32px" viewBox="0 0 128 32" version="1.1" xmlns="http://www.w3.org/2000/svg" xmlns:xlink="http://www.w3.org/1999/xlink">
    <defs>
        <polygon id="path-1" points="0 0.0415316719 23.3253644 0.0415316719 23.3253644 27.3718746 0 27.3718746"></polygon>
        <polygon id="path-3" points="0.0168504887 0.0666853173 31.8474236 0.0666853173 31.8474236 19.5646712 0.0168504887 19.5646712"></polygon>
        <polygon id="path-5" points="0.156069512 0.0643232523 23.576031 0.0643232523 23.576031 23.3077933 0.156069512 23.3077933"></polygon>
    </defs>
    <g id="01-Navigation" stroke="none" stroke-width="1" fill="none" fill-rule="evenodd">
        <g id="1.1_c1_s1_navigation_personal_tab_desktop_car-insurance" transform="translate(-25.000000, -61.000000)">
            <g id="Logo" transform="translate(25.000000, 61.000000)">
                <g id="Group">
                    <g id="Group-3" transform="translate(0.000000, 4.156921)">
                        <mask id="mask-2" fill="white">
                            <use xlink:href="#path-1"></use>
                        </mask>
                        <g id="Clip-2"></g>
                        <path d="M21.8459836,5.69578332 C19.7970849,2.31067831 16.0397912,0.0415316719 11.7471252,0.0415316719 C5.47083435,0.0415316719 0.342790714,4.88955267 0.0168981338,10.9902502 C0.0111807201,11.0880178 0.00736911098,11.1857854 0.00546330642,11.283553 C0.00181051434,11.4054105 -9.52902282e-05,11.5271116 -9.52902282e-05,11.6506899 L-9.52902282e-05,11.6876069 C-9.52902282e-05,11.761441 -9.52902282e-05,11.8352751 0.0037163189,11.9089527 C0.119652763,20.3654581 7.03454699,27.2076251 15.6090794,27.3718746 C9.24305685,27.2040272 4.13359481,22.0663013 4.13359481,15.7534872 C4.13359481,9.33555335 9.41521453,4.13150189 15.9313192,4.13150189 C16.4098349,4.13150189 16.8812039,4.16091038 17.3449497,4.21550381 C16.9734766,4.17201678 16.5969214,4.14558043 16.2159193,4.13697688 C19.6133336,4.26055511 22.4471061,6.55551239 23.3253644,9.65466676 C23.0801509,8.22866781 22.5706658,6.89308433 21.8459836,5.69578332" id="Fill-1" fill="#B81D31" mask="url(#mask-2)"></path>
                    </g>
                    <g id="Group-6" transform="translate(0.000000, 0.089790)">
                        <mask id="mask-4" fill="white">
                            <use xlink:href="#path-3"></use>
                        </mask>
                        <g id="Clip-5"></g>
                        <path d="M31.8474395,15.4610917 L31.8474395,15.4607789 C31.8474395,15.3584748 31.8423574,15.2574223 31.834893,15.1569954 C31.6957692,11.5460081 30.324384,8.24396648 28.1146036,5.65820928 C27.9516573,5.46830552 27.7850583,5.28184317 27.6146476,5.09929153 C27.4440781,4.91846059 27.2681088,4.7395068 27.0883279,4.56618442 C26.9984374,4.47952323 26.908547,4.39270561 26.8165919,4.30792155 C26.7230487,4.22298107 26.6312524,4.14007416 26.5377092,4.05701081 C26.4440071,3.97394747 26.3483993,3.89276126 26.2529502,3.81157506 C26.1573423,3.73054528 26.0599875,3.65107978 25.9626326,3.57364785 C25.84082,3.47588026 25.7191661,3.38186695 25.5937006,3.28769721 C25.5168332,3.23060093 25.4420304,3.17334823 25.3632571,3.11797267 C25.2622495,3.04429502 25.1591772,2.97046093 25.0561049,2.90038112 C24.9587501,2.83202203 24.8613952,2.76569649 24.7621346,2.70109167 C24.7453,2.68998527 24.7265596,2.67715816 24.7059134,2.66417463 C24.6141171,2.60332408 24.520415,2.54435067 24.424966,2.48522083 C24.3182409,2.4188953 24.2113571,2.35241334 24.102885,2.28968565 C23.8799059,2.1587553 23.6551798,2.03142279 23.4248951,1.91144241 C23.3180112,1.85434613 23.2112861,1.79897057 23.1026553,1.74547215 C22.9603552,1.67539234 22.8161493,1.60531253 22.6700376,1.53883057 C22.5858646,1.49831568 22.4996269,1.4595215 22.4114835,1.42260446 C22.2953882,1.37098317 22.179293,1.32123902 22.0612919,1.27321558 C21.9451966,1.22519214 21.8291014,1.17920227 21.7128473,1.1349331 C21.7017301,1.12930169 21.6885483,1.12570384 21.6772723,1.12007243 C21.5668944,1.0776804 21.4563578,1.03716552 21.3440741,0.998371336 C21.205268,0.948470758 21.0667795,0.900603747 20.9262265,0.856334582 C20.8214072,0.821294678 20.716588,0.788131912 20.6116099,0.756689855 C20.5048848,0.723527089 20.3981598,0.692085032 20.2895289,0.662676541 C20.1996385,0.636865898 20.111495,0.612775964 20.0235104,0.590719596 C19.46908,0.444928567 18.9035325,0.328702456 18.3248032,0.243918403 C18.1955261,0.223582745 18.0645021,0.207001361 17.9333192,0.190419978 C17.6749239,0.157100784 17.4144639,0.13129014 17.152257,0.112831619 C17.0642723,0.105479497 16.9762877,0.100004512 16.888303,0.0962502363 C16.5698749,0.0759145777 16.2495409,0.0666853173 15.9274599,0.0666853173 C7.36992095,0.0666853173 0.385782489,6.71535067 0.0168504887,15.0573507 C0.342743069,8.9566531 5.4707867,4.1086321 11.7470776,4.1086321 C16.6835879,4.1086321 20.9058979,7.10876745 22.6443093,11.3567301 L16.4734729,11.3567301 L16.4734729,11.3568865 C14.1723727,11.3568865 12.3069077,13.1942915 12.3069077,15.4607789 C12.3069077,17.7272662 14.1723727,19.5646712 16.4734729,19.5646712 L27.7482127,19.5646712 L27.7482127,19.5629505 C30.0180259,19.5274413 31.8471219,17.7053663 31.8474395,15.4612481 L31.8474395,15.4610917 Z" id="Fill-4" fill="#E21D48" mask="url(#mask-4)"></path>
                    </g>
                    <g id="Group-9" transform="translate(3.970426, 8.224053)">
                        <mask id="mask-6" fill="white">
                            <use xlink:href="#path-5"></use>
                        </mask>
                        <g id="Clip-8"></g>
                        <path d="M19.5150735,7.3271255 L19.5150735,7.32649978 L19.509356,7.32649978 C19.5095149,7.32665621 19.5095149,7.32696907 19.5095149,7.3271255 L19.5150735,7.3271255 Z M21.1270665,12.7972612 C19.6800844,12.1562187 17.993765,12.3903916 16.7719854,13.3873082 C15.7148992,14.249853 14.1373694,15.0709443 11.9499822,15.0709443 C7.77150574,15.0709443 4.38520866,11.7355834 4.38520866,7.61995898 C4.38520866,3.83408507 7.25646205,0.618078878 10.9708751,0.126894509 C10.9878686,0.124860944 11.0050208,0.12267095 11.0220142,0.120637384 C11.131598,0.106871707 11.2416582,0.0948267401 11.3525125,0.085910336 C11.2664337,0.0923238898 11.1811489,0.102335291 11.0958642,0.111564551 C11.120322,0.108905273 11.1443034,0.104994569 11.16892,0.102491719 C11.2289528,0.0970167341 11.2907327,0.0915417491 11.3525125,0.085910336 C11.4798838,0.0766810755 11.6091609,0.0693289528 11.7382791,0.0655746774 C5.32159397,0.17820294 0.156069512,5.33798523 0.156069512,11.6858393 C0.156069512,17.1758414 4.02008827,21.7767059 9.21356452,22.9905883 C9.99272096,23.1750171 10.8018938,23.2820139 11.6315541,23.3042267 C11.7382791,23.3061039 11.84691,23.3078246 11.9537939,23.3078246 C12.0641717,23.3078246 12.1728026,23.3061039 12.2833392,23.3042267 C12.3058912,23.3042267 12.3301903,23.3023496 12.3525835,23.3023496 C12.4162691,23.3004724 12.4799547,23.2968746 12.5455462,23.2949975 C12.5623808,23.2949975 12.5792154,23.2949975 12.5962088,23.2931203 C12.6694235,23.2912432 12.7440675,23.2876453 12.8190291,23.2838911 C12.9144782,23.2784161 13.010086,23.2727847 13.1055351,23.2654325 C13.1917727,23.2599576 13.2797574,23.2526054 13.3658362,23.2452533 C13.379018,23.2433762 13.3921998,23.2433762 13.403317,23.241499 C17.1536228,22.8477694 20.0089945,21.3144607 22.0553521,19.6765017 C24.4431664,17.7652626 23.9330461,14.0402392 21.1270665,12.7972612 Z M11.9549056,0.0643232523 L11.9541115,0.0643232523 C11.9544291,0.0643232523 11.9547468,0.0644796805 11.9549056,0.0644796805 L11.9549056,0.0643232523 Z" id="Fill-7" fill="#E93F50" mask="url(#mask-6)"></path>
                    </g>
                </g>
                <g transform="translate(37.000000, 7.000000)" fill="#092C3F">
                    <path d="M10.4395266,14.1876826 C10.3189635,14.2620848 10.1387372,14.3899897 9.89884757,14.5642914 C9.65906099,14.7385931 9.34858528,14.9101779 8.96597782,15.0775828 C8.58337035,15.2433158 8.12873417,15.3924336 7.6048515,15.5215924 C7.0793201,15.6494973 6.48052344,15.7142857 5.80403058,15.7142857 C4.90444448,15.7142857 4.09481699,15.5736322 3.37401461,15.2926385 C2.65465487,15.0127944 2.04328668,14.620511 1.54145572,14.1188188 C1.03828517,13.6154546 0.655780747,13.0125044 0.393736366,12.3039073 C0.130352396,11.5967731 0,10.8179537 0,9.96629958 C0,9.22112834 0.12334531,8.50291744 0.371478566,7.81114439 C0.618272232,7.11822187 0.974397037,6.51370419 1.44026516,5.99633736 C1.90469066,5.47917954 2.47442852,5.0644292 3.14947875,4.75229535 C3.82452898,4.44172896 4.58964087,4.28571429 5.4450205,4.28571429 C6.2989575,4.28571429 7.0502613,4.43734007 7.69481011,4.74100963 C8.33946195,5.04624665 8.8828202,5.46789381 9.32498789,6.00908605 C9.76715558,6.54745686 10.1013317,7.19398251 10.3272072,7.94751355 C10.5518461,8.69968612 10.6640625,9.5246934 10.6640625,10.4215949 L10.6640625,10.9712514 L3.14947875,10.9712514 C3.16472946,11.5476593 3.41564494,12.0538449 3.90356478,12.4866733 C4.39148462,12.9196062 5.06241303,13.1375879 5.91624699,13.1375879 C6.7563759,13.1375879 7.43977281,13.0125044 7.96520116,12.7607701 C8.48918688,12.5106032 8.8716913,12.2926216 9.11158093,12.111423 L10.4395266,14.1876826 Z M7.6048515,8.87106192 C7.6048515,8.6432575 7.55899631,8.41158668 7.46893465,8.17521347 C7.38021259,7.94040772 7.24429574,7.72409802 7.06551202,7.52450792 C6.88394607,7.32773924 6.65920412,7.16326027 6.39035874,7.0353554 C6.12017378,6.90598757 5.79712654,6.84130366 5.42142311,6.84130366 C5.04716232,6.84130366 4.71731408,6.90598757 4.43167231,7.0353554 C4.14747318,7.16326027 3.91046882,7.32773924 3.72333843,7.52450792 C3.53620803,7.72409802 3.39349019,7.94040772 3.29642145,8.17521347 C3.19801312,8.41158668 3.14947875,8.6432575 3.14947875,8.87106192 L7.6048515,8.87106192 Z" id="Fill-1"></path>
                    <path d="M12.0859375,4.53180935 L15.3051319,4.53180935 L15.3985441,5.66934721 C15.7565887,5.25261125 16.2281387,4.9183841 16.8105222,4.66533662 C17.3942951,4.41228914 18.0053221,4.28571429 18.6422139,4.28571429 C19.9031719,4.28571429 20.9023833,4.64335472 21.6414514,5.3572042 C22.3804125,6.07095144 22.75,7.12853653 22.75,8.52607428 L22.75,15 L19.3898322,15 L19.3898322,8.97297146 C19.3898322,8.39264925 19.2375297,7.93184724 18.9341003,7.58944078 C18.6321672,7.24693208 18.2065752,7.07639341 17.6630957,7.07639341 C17.289233,7.07639341 16.9629316,7.13968084 16.682588,7.2662557 C16.4021376,7.39272832 16.1692484,7.55907508 15.9823171,7.76815875 C15.7953857,7.97591329 15.6559087,8.21935007 15.5624965,8.49294807 C15.4690843,8.76951107 15.42163,9.06243269 15.42163,9.37600708 L15.42163,15 L12.0859375,15 L12.0859375,4.53180935 Z" id="Fill-3"></path>
                    <path d="M31.0147417,14.3065267 C30.6875764,14.7060559 30.2700463,15.043119 29.7594039,15.3105287 C29.2474385,15.5792068 28.6669872,15.7142857 28.0154042,15.7142857 C27.3788819,15.7142857 26.7819452,15.5849144 26.2262221,15.3219438 C25.6718219,15.0603474 25.1898764,14.6875592 24.7819119,14.2043191 C24.3740493,13.7194936 24.0522773,13.1351029 23.8154768,12.4482933 C23.5786763,11.7644431 23.4609375,10.9922314 23.4609375,10.130707 C23.4609375,9.1609503 23.6266063,8.31200365 23.9605896,7.58122463 C24.2932501,6.84896587 24.7230934,6.24618415 25.2487967,5.76833457 C25.7743982,5.29344447 26.3590217,4.93365683 27.0037867,4.69637032 C27.6485516,4.45728699 28.2809016,4.33795671 28.9038895,4.33795671 C29.4076121,4.33795671 29.7990911,4.37357611 30.081074,4.44174974 C30.3631587,4.5116145 30.6519597,4.60092724 30.9476805,4.70778544 L30.9476805,0 L34.125,0 L34.125,15.3913858 L31.1475413,15.3913858 L31.0147417,14.3065267 Z M30.9476805,7.54571092 C30.7259407,7.40767254 30.484968,7.30694468 30.2248639,7.24564126 C29.9661846,7.18465493 29.6444126,7.15336905 29.2597517,7.15336905 C28.4439246,7.15336905 27.8113711,7.43916981 27.3597507,8.00770617 C26.9079267,8.57666531 26.6820148,9.30733863 26.6820148,10.2002546 C26.6820148,10.9851498 26.8669166,11.6265104 27.2364149,12.1253934 C27.6074397,12.6260732 28.1619417,12.8761488 28.9038895,12.8761488 C29.2597517,12.8761488 29.5664628,12.8123087 29.8251422,12.6799779 C30.0852463,12.5493382 30.3001679,12.3771602 30.4699072,12.1623868 C30.6396464,11.9464508 30.7628804,11.69331 30.8367597,11.4004276 C30.9107408,11.1073338 30.9476805,10.8073699 30.9476805,10.4988446 L30.9476805,7.54571092 Z" id="Fill-5"></path>
                    <path d="M37.1163891,12.0414619 C37.4554478,12.3606607 37.9011461,12.627722 38.454294,12.8399291 C39.0072393,13.0521362 39.5412467,13.1590234 40.0577341,13.1590234 C40.5289529,13.1590234 40.9186477,13.0984227 41.2293503,12.9762808 C41.5384326,12.8554972 41.6938852,12.6191543 41.6938852,12.2705954 C41.6938852,12.1328854 41.6597565,12.0077135 41.594436,11.8938259 C41.5276978,11.778789 41.4064751,11.6719018 41.2293503,11.5748361 C41.0522256,11.4751583 40.8055269,11.3725549 40.4882416,11.2657722 C40.1706525,11.1602433 39.768805,11.0378925 39.2838132,10.9015407 C38.8860167,10.7948625 38.4908532,10.654227 38.1000444,10.4784848 C37.709033,10.3044143 37.3628852,10.0878189 37.0618034,9.8278625 C36.7595064,9.57051825 36.5170611,9.25842435 36.3315308,8.89304358 C36.1463042,8.52912559 36.0550581,8.10324854 36.0550581,7.61530796 C36.0550581,7.11514274 36.1653433,6.66251778 36.3862177,6.25910481 C36.6080034,5.85715461 36.9148577,5.5057747 37.3041474,5.20914445 C37.6954626,4.91387248 38.1584783,4.6849479 38.6979545,4.52592315 C39.2348988,4.36574908 39.8138711,4.28571429 40.4337572,4.28571429 C41.3178621,4.28571429 42.0916818,4.38831764 42.7536971,4.59352434 C43.4172315,4.79873104 44.0290159,5.09954066 44.5900629,5.49449042 L43.2413219,7.66190785 C42.9021619,7.43413259 42.5153027,7.22892589 42.0808456,7.04618326 C41.6448695,6.86354512 41.1556243,6.77212156 40.6093629,6.77212156 C40.1228521,6.77212156 39.768805,6.84369315 39.548032,6.98850806 C39.3274615,7.13478575 39.2171762,7.32734988 39.2171762,7.57037981 C39.2171762,7.92050591 39.4446332,8.17899949 39.9023828,8.34638296 C40.3587146,8.51366194 40.9772842,8.70330052 41.7592057,8.91707492 C42.8219544,9.22195942 43.5902041,9.63937325 44.0712463,10.1706747 C44.5479338,10.7035434 44.7890625,11.4103781 44.7890625,12.2930595 C44.7890625,12.8862155 44.6596368,13.3965157 44.4020008,13.8210345 C44.1432507,14.246807 43.7974067,14.6011125 43.3626458,14.8821746 C42.9281888,15.1631323 42.4350952,15.3727273 41.8819474,15.509079 C41.3287995,15.6466845 40.7648155,15.7142857 40.1898941,15.7142857 C39.2620397,15.7142857 38.3834035,15.5850389 37.5590491,15.3263364 C36.7321629,15.0676338 36.0633624,14.6714303 35.546875,14.1401288 L37.1163891,12.0414619 Z" id="Fill-7"></path>
                    <polygon id="Fill-9" points="46.921875 15 50.4765625 15 50.4765625 0 46.921875 0"></polygon>
                    <path d="M61.625687,14.1876826 C61.5050209,14.2620848 61.3263402,14.3899897 61.0865537,14.5642914 C60.846561,14.7385931 60.5361883,14.9101779 60.1535809,15.0775828 C59.7694277,15.2433158 59.3162342,15.3924336 58.7909089,15.5215924 C58.2668201,15.6494973 57.6665808,15.7142857 56.9915306,15.7142857 C56.0920475,15.7142857 55.2810804,15.5736322 54.5615146,15.2926385 C53.8421549,15.0127944 53.2306836,14.620511 52.7289557,14.1188188 C52.2257852,13.6154546 51.8431777,13.0125044 51.5812364,12.3039073 C51.3179554,11.5967731 51.1875,10.8179537 51.1875,9.96629958 C51.1875,9.22112834 51.3108453,8.50291744 51.5590816,7.81114439 C51.8058753,7.11822187 52.1620001,6.51370419 52.6265286,5.99633736 C53.0921907,5.47917954 53.6619285,5.0644292 54.3370818,4.75229535 C55.012029,4.44172896 55.7772439,4.28571429 56.6310779,4.28571429 C57.4863545,4.28571429 58.2363187,4.43734007 58.8823101,4.74100963 C59.5255193,5.04624665 60.0703202,5.46789381 60.5124879,6.00908605 C60.9546556,6.54745686 61.2887287,7.19398251 61.5133676,7.94751355 C61.7380065,8.69968612 61.8515625,9.5246934 61.8515625,10.4215949 L61.8515625,10.9712514 L54.3370818,10.9712514 C54.3522295,11.5476593 54.603248,12.0538449 55.0911678,12.4866733 C55.5777481,12.9196062 56.249913,13.1375879 57.103747,13.1375879 C57.9439789,13.1375879 58.6272728,13.0125044 59.1512585,12.7607701 C59.6766869,12.5106032 60.0592943,12.2926216 60.2989779,12.111423 L61.625687,14.1876826 Z M58.7909089,8.87106192 C58.7909089,8.6432575 58.7465994,8.41158668 58.6564347,8.17521347 C58.5676095,7.94040772 58.4318988,7.72409802 58.2516724,7.52450792 C58.0714461,7.32773924 57.8468072,7.16326027 57.5765192,7.0353554 C57.3062311,6.90598757 56.9831839,6.84130366 56.6089231,6.84130366 C56.2333227,6.84130366 55.9034745,6.90598757 55.6192754,7.0353554 C55.3349732,7.16326027 55.0980719,7.32773924 54.9108384,7.52450792 C54.7224715,7.72409802 54.5809902,7.94040772 54.4825819,8.17521347 C54.3855131,8.41158668 54.3370818,8.6432575 54.3370818,8.87106192 L58.7909089,8.87106192 Z" id="Fill-11"></path>
                    <polygon id="Fill-12" points="63.2734375 15 66.828125 15 66.828125 4.28571429 63.2734375 4.28571429"></polygon>
                    <path d="M70.4495284,16.5433967 C70.8685597,16.8010848 71.3140182,17.0013815 71.7856983,17.1459535 C72.2574812,17.2900047 72.7776969,17.3603116 73.3462426,17.3603116 C74.0778763,17.3603116 74.6561909,17.165327 75.074091,16.7716079 C75.4930194,16.3765348 75.7033063,15.783873 75.7033063,14.9964349 L75.7033063,14.2467022 C75.0295657,14.8380099 74.1319648,15.1336117 73.0086525,15.1336117 C72.2603604,15.1336117 71.5909387,15.0076841 71.0000789,14.7581203 C70.4080881,14.507515 69.911626,14.1556677 69.5060654,13.7018492 C69.103487,13.24626 68.7923241,12.7083856 68.5752505,12.0861429 C68.3578684,11.4641084 68.25,10.7830161 68.25,10.0390121 C68.25,9.17595492 68.3954013,8.39132909 68.6872321,7.6863845 C68.9791658,6.98164822 69.3913074,6.37492508 69.9209835,5.86767328 C70.4536416,5.35917158 71.0886154,4.96816065 71.8301207,4.69505711 C72.5701865,4.42309932 73.3972462,4.28571429 74.311814,4.28571429 C75.1789773,4.28571429 76.0061399,4.36133334 76.7921705,4.51413383 C77.5777898,4.6654761 78.2858755,4.8546279 78.9140625,5.08169339 L78.9140625,14.8380099 C78.9140625,16.5965175 78.4338475,17.8953738 77.4769139,18.7374951 C76.5182321,19.5797205 75.2094149,20 73.5468635,20 C72.6062797,20 71.7816879,19.9088613 71.0790522,19.7281464 C70.3747712,19.544515 69.7317768,19.25735 69.1480122,18.8637351 L70.4495284,16.5433967 Z M75.7256203,7.21985867 C75.5166702,7.14434377 75.3061777,7.08663997 75.0973305,7.04903876 C74.8870437,7.01102091 74.6091977,6.99279318 74.2659519,6.99279318 C73.8027039,6.99279318 73.3972462,7.07143283 73.0529722,7.23110778 C72.7097264,7.39078273 72.4207748,7.6023286 72.1898192,7.86730778 C71.9572183,8.13353685 71.7856983,8.44444992 71.6738195,8.8004636 C71.5603983,9.15772719 71.504973,9.53176029 71.504973,9.92693756 C71.504973,10.6989602 71.6877015,11.3141202 72.0540839,11.7680429 C72.4207748,12.2220697 72.9575462,12.4491352 73.6601819,12.4491352 C74.318498,12.4491352 74.8276081,12.2864396 75.1861754,11.9601111 C75.5457711,11.6364907 75.7256203,11.1235102 75.7256203,10.4257525 L75.7256203,7.21985867 Z" id="Fill-13"></path>
                    <path d="M80.3359375,0 L83.6586996,0 L83.6586996,5.46510829 C84.0152077,5.06060211 84.4876076,4.74880169 85.0760056,4.53269424 C85.6629138,4.31380561 86.2614217,4.20575188 86.8640801,4.20575188 C88.1196272,4.20575188 89.1217875,4.56596531 89.8733279,5.28505308 C90.6248683,6.00414086 91,7.06984522 91,8.47773688 L91,15 L87.6787278,15 L87.6787278,8.97371276 C87.6787278,8.35855846 87.515479,7.87916661 87.1904713,7.53399212 C86.8640801,7.18902364 86.4318007,7.01710593 85.8891634,7.01710593 C85.5326553,7.01710593 85.2148842,7.08096991 84.9371271,7.20828584 C84.6579866,7.33446869 84.4260967,7.50360522 84.2399675,7.71404733 C84.0538383,7.92325335 83.9135763,8.16737856 83.8219484,8.44446581 C83.7288306,8.72145006 83.6814736,9.01810853 83.6814736,9.33392619 L83.6814736,15 L80.3359375,15 L80.3359375,0 Z" id="Fill-14"></path>
                    <polygon id="Fill-15" points="63.2734375 3.57142857 66.828125 3.57142857 66.828125 0 63.2734375 0"></polygon>
                </g>
            </g>
        </g>
    </g>
</svg>