<?xml version="1.0" encoding="utf-8"?>
<!-- Generator: Adobe Illustrator 23.0.1, SVG Export Plug-In . SVG Version: 6.00 Build 0)  -->
<svg version="1.1" id="Layer_1" xmlns="http://www.w3.org/2000/svg" xmlns:xlink="http://www.w3.org/1999/xlink" x="0px" y="0px"
	 viewBox="0 0 343.2 381.2" style="enable-background:new 0 0 343.2 381.2;" xml:space="preserve">
<style type="text/css">
	.st0{fill:#E50E45;}
	.st1{opacity:0.305;fill:#E2E1E1;enable-background:new    ;}
	.st2{fill:#DE0E34;}
</style>
<path class="st0" d="M337.1,338.3c1.9,5.2,3.9,10.3,6.1,15.5v-19C341.2,336,339.2,337.2,337.1,338.3z"/>
<path class="st1" d="M337.1,338.3c1.9,5.2,3.9,10.3,6.1,15.5v-19C341.2,336,339.2,337.2,337.1,338.3z"/>
<path class="st2" d="M59.1,68.7C52.3,36.8,29.3,11.3,0,0v39.3v226.2c38.2-57.3,54.6-115.8,60.4-166.3C61.7,88.6,61.1,78.3,59.1,68.7
	z"/>
<path class="st0" d="M316.1,249.4c3.2,27.8,9.6,57.9,21,88.9c2.1-1.2,4.1-2.3,6.1-3.5V171.7C323.8,191,312.5,218.6,316.1,249.4z"/>
<path class="st0" d="M92.2,78.5c-11.7-2.8-22.7-6.1-33.2-9.9c2,9.7,2.6,19.9,1.4,30.5c-5.8,50.5-22.2,109-60.4,166.3v-113v228.7
	h343.2V128.9c-2.2,219.8-4.2,214.6-6.1,209.5c2.1-1.2,4.1-2.3,6.1-3.5V171.7V16.5C276.8,74.3,184.5,100.4,92.2,78.5z"/>
<path class="st1" d="M316.1,249.4c3.2,27.8,9.6,57.9,21,88.9c2.1-1.2,4.1-2.3,6.1-3.5V171.7C323.8,191,312.5,218.6,316.1,249.4z"/>
</svg>
