<?xml version="1.0" encoding="UTF-8"?>
<svg width="75px" height="75px" viewBox="0 0 75 75" version="1.1" xmlns="http://www.w3.org/2000/svg" xmlns:xlink="http://www.w3.org/1999/xlink">
    <!-- Generator: Sketch 52.4 (67378) - http://www.bohemiancoding.com/sketch -->
    <title>Group 18</title>
    <desc>Created with Sketch.</desc>
    <g id="04-Product-pages" stroke="none" stroke-width="1" fill="none" fill-rule="evenodd">
        <g id="Product-page---Gadget---desktop" transform="translate(-233.000000, -2155.000000)">
            <g id="Fact_-2" transform="translate(0.000000, 2014.000000)">
                <g id="Fact_">
                    <g id="Group-20">
                        <g id="Group-26" transform="translate(213.000000, 121.000000)">
                            <g id="Fact">
                                <g id="Group-18" transform="translate(20.000000, 20.000000)">
                                    <circle id="Oval" fill="#0A2A3B" fill-rule="nonzero" cx="37.5" cy="37.5" r="37.5"></circle>
                                    <g id="Group-703" transform="translate(26.000000, 13.000000)" stroke-linejoin="round">
                                        <path d="M21.7222222,22.952381 L21.7222222,37.9899749 C21.7222222,40.2035088 19.9528485,42 17.7727273,42 L3.94949495,42 C1.76937374,42 0,40.2035088 0,37.9899749 L0,7.91478697 C0,5.69924812 1.76937374,3.9047619 3.94949495,3.9047619 L9.87373737,3.9047619" id="Stroke-8738" stroke="#FFFFFF" stroke-width="1.42200004" stroke-linecap="round"></path>
                                        <g id="Group-17" transform="translate(20.000000, 9.500000) scale(-1, 1) translate(-20.000000, -9.500000) translate(13.000000, 0.000000)" stroke="#00B2A9" stroke-linecap="round" stroke-width="1.33200007">
                                            <path d="M4.43413162,2.27373675e-13 C5.17742536,2.39188889 6.61702301,6.77455556 4.43413162,10.2325556 C3.96423328,9.71955556 2.21706581,7.30866667 2.21706581,7.30866667 C2.21706581,7.30866667 -1.51612056e-12,10.3887778 -1.51612056e-12,12.4238889 C-1.51612056e-12,16.0402222 2.96676726,19 6.65333333,19 C10.3569866,19 13.3066667,16.0254444 13.3066667,12.4238889 C13.3066667,7.12288889 9.57097485,1.69733333 4.43413162,2.27373675e-13 L4.43413162,2.27373675e-13 Z" id="Stroke-9658" transform="translate(6.653333, 9.500000) scale(-1, 1) translate(-6.653333, -9.500000) "></path>
                                            <path d="M5.76832103,11 C6.06474478,12.0071111 6.63885286,13.8524444 5.76832103,15.3084444 C5.5809267,15.0924444 4.88416051,14.0773333 4.88416051,14.0773333 C4.88416051,14.0773333 4,15.3742222 4,16.2311111 C4,17.7537778 5.18313965,19 6.65333333,19 C8.13034136,19 9.30666667,17.7475556 9.30666667,16.2311111 C9.30666667,13.9991111 7.81688175,11.7146667 5.76832103,11 L5.76832103,11 Z" id="Stroke-9658" transform="translate(6.653333, 15.000000) scale(-1, 1) translate(-6.653333, -15.000000) "></path>
                                        </g>
                                        <path d="M10.3888889,12.4761905 L0,12.4761905" id="Stroke-8739" stroke="#FFFFFF" stroke-width="1.42200004" stroke-linecap="round"></path>
                                        <path d="M21.7222222,34.3809524 L0,34.3809524" id="Stroke-8740" stroke="#FFFFFF" stroke-width="1.42200004" stroke-linecap="round"></path>
                                        <path d="M8.5,7.71428571 L10.3888889,7.71428571" id="Stroke-8741" stroke="#FFFFFF" stroke-width="1.42200004" stroke-linecap="round"></path>
                                        <path d="M12.2777778,38.1904762 C12.2777778,38.7142857 11.8546667,39.1428571 11.3333333,39.1428571 C10.812,39.1428571 10.3888889,38.7142857 10.3888889,38.1904762 C10.3888889,37.6628571 10.812,37.2380952 11.3333333,37.2380952 C11.8546667,37.2380952 12.2777778,37.6628571 12.2777778,38.1904762 L12.2777778,38.1904762 Z" id="Stroke-8742" stroke="#FFFFFF" stroke-width="1.42200004"></path>
                                    </g>
                                </g>
                            </g>
                        </g>
                    </g>
                </g>
            </g>
        </g>
    </g>
</svg>