<?xml version="1.0" encoding="UTF-8"?>
<svg width="75px" height="75px" viewBox="0 0 75 75" version="1.1" xmlns="http://www.w3.org/2000/svg" xmlns:xlink="http://www.w3.org/1999/xlink">
    <!-- Generator: Sketch 52.4 (67378) - http://www.bohemiancoding.com/sketch -->
    <title>Group 18</title>
    <desc>Created with Sketch.</desc>
    <g id="04-Product-pages" stroke="none" stroke-width="1" fill="none" fill-rule="evenodd">
        <g id="Product-page---Gadget---desktop" transform="translate(-553.000000, -2155.000000)">
            <g id="Fact_-2" transform="translate(0.000000, 2014.000000)">
                <g id="Fact_">
                    <g id="Group-20">
                        <g id="Group-26" transform="translate(533.000000, 121.000000)">
                            <g id="Fact">
                                <g id="Group-18" transform="translate(20.000000, 20.000000)">
                                    <circle id="Oval" fill="#0A2A3B" fill-rule="nonzero" cx="37.5" cy="37.5" r="37.5"></circle>
                                    <g id="Group-703" transform="translate(26.000000, 15.000000)" stroke-linejoin="round" stroke-width="1.42200004">
                                        <path d="M21.7222222,20.952381 L21.7222222,35.9899749 C21.7222222,38.2035088 19.9528485,40 17.7727273,40 L3.94949495,40 C1.76937374,40 0,38.2035088 0,35.9899749 L0,5.91478697 C0,3.69924812 1.76937374,1.9047619 3.94949495,1.9047619 L9.87373737,1.9047619" id="Stroke-8738" stroke="#FFFFFF" stroke-linecap="round"></path>
                                        <path d="M10.3888889,10.4761905 L0,10.4761905" id="Stroke-8739" stroke="#FFFFFF" stroke-linecap="round"></path>
                                        <path d="M21.7222222,32.3809524 L0,32.3809524" id="Stroke-8740" stroke="#FFFFFF" stroke-linecap="round"></path>
                                        <path d="M8.5,5.71428571 L10.3888889,5.71428571" id="Stroke-8741" stroke="#FFFFFF" stroke-linecap="round"></path>
                                        <path d="M12.2777778,36.1904762 C12.2777778,36.7142857 11.8546667,37.1428571 11.3333333,37.1428571 C10.812,37.1428571 10.3888889,36.7142857 10.3888889,36.1904762 C10.3888889,35.6628571 10.812,35.2380952 11.3333333,35.2380952 C11.8546667,35.2380952 12.2777778,35.6628571 12.2777778,36.1904762 L12.2777778,36.1904762 Z" id="Stroke-8742" stroke="#FFFFFF"></path>
                                        <path d="M30.2222222,8.09625013 C30.2222222,12.5674043 26.6257778,16.1904762 22.1964514,16.1904762 C17.7611042,16.1904762 14.1666667,12.5674043 14.1666667,8.09625013 C14.1666667,3.62104787 17.7611042,0 22.1964514,0 C26.6257778,0 30.2222222,3.62104787 30.2222222,8.09625013 L30.2222222,8.09625013 Z" id="Stroke-8743" stroke="#00B2A9"></path>
                                        <path d="M27.3888889,14.2857143 L34,20.952381" id="Stroke-8744" stroke="#00B2A9" stroke-linecap="round"></path>
                                    </g>
                                </g>
                            </g>
                        </g>
                    </g>
                </g>
            </g>
        </g>
    </g>
</svg>