<?xml version="1.0" encoding="UTF-8"?>
<svg width="75px" height="75px" viewBox="0 0 75 75" version="1.1" xmlns="http://www.w3.org/2000/svg" xmlns:xlink="http://www.w3.org/1999/xlink">
    <!-- Generator: Sketch 52.4 (67378) - http://www.bohemiancoding.com/sketch -->
    <title>Group 18</title>
    <desc>Created with Sketch.</desc>
    <g id="04-Product-pages" stroke="none" stroke-width="1" fill="none" fill-rule="evenodd">
        <g id="Product-page---Gadget---desktop" transform="translate(-871.000000, -2155.000000)">
            <g id="Fact_-2" transform="translate(0.000000, 2014.000000)">
                <g id="Fact_">
                    <g id="Group-20">
                        <g id="Group-26" transform="translate(851.000000, 121.000000)">
                            <g id="Fact">
                                <g id="Group-18" transform="translate(20.000000, 20.000000)">
                                    <circle id="Oval" fill="#0A2A3B" fill-rule="nonzero" cx="37.5" cy="37.5" r="37.5"></circle>
                                    <g id="Group-728" transform="translate(19.000000, 17.000000)" stroke-linejoin="round" stroke-width="1.34999996">
                                        <path d="M28.8780488,6.31707317 L7.2195122,6.31707317" id="Stroke-5188" stroke="#FFFFFF" stroke-linecap="round"></path>
                                        <path d="M28.8780488,30.6829268 L7.2195122,30.6829268" id="Stroke-5189" stroke="#FFFFFF" stroke-linecap="round"></path>
                                        <path d="M14.4390244,2.70731707 L22.5609756,2.70731707" id="Stroke-5190" stroke="#FFFFFF" stroke-linecap="round"></path>
                                        <path d="M24.7129456,20.7560976 L19.7148218,24.0952254 L13.0506567,20.7560976 L7.2195122,24.0595211 L7.2195122,33.8952786 C7.2195122,35.6090848 8.71228518,37 10.5515947,37 L25.5459662,37 C27.3852758,37 28.8780488,35.6090848 28.8780488,33.8952786 L28.8780488,22.1423557 L24.7129456,20.7560976 L24.7129456,20.7560976 Z" id="Stroke-5191" stroke="#FFFFFF" stroke-linecap="round"></path>
                                        <path d="M12.660803,13.8998506 L19.6765028,17.1463415 L24.849561,12.9875867 L28.8780488,14.299169 L28.8780488,3.2481141 C28.8780488,1.4544279 27.3869418,0 25.5459662,0 L10.5515947,0 C8.71228518,0 7.2195122,1.4544279 7.2195122,3.2481141 L7.2195122,17.0603095 L12.660803,13.8998506 L12.660803,13.8998506 Z" id="Stroke-5192" stroke="#FFFFFF" stroke-linecap="round"></path>
                                        <path d="M3.6097561,18.0487805 L0,18.0487805" id="Stroke-5193" stroke="#00B2A9" stroke-linecap="round"></path>
                                        <path d="M2.70731707,12.6341463 L0,9.92682927" id="Stroke-5194" stroke="#00B2A9" stroke-linecap="round"></path>
                                        <path d="M2.70731707,22.5609756 L0,25.2682927" id="Stroke-5195" stroke="#00B2A9" stroke-linecap="round"></path>
                                        <path d="M33.3902439,18.0487805 L37,18.0487805" id="Stroke-5196" stroke="#00B2A9" stroke-linecap="round"></path>
                                        <path d="M34.2926829,12.6341463 L37,9.92682927" id="Stroke-5197" stroke="#00B2A9" stroke-linecap="round"></path>
                                        <path d="M34.2926829,22.5609756 L37,25.2682927" id="Stroke-5198" stroke="#00B2A9" stroke-linecap="round"></path>
                                        <path d="M18.9512195,34.2926829 C18.9512195,34.7908293 18.5469268,35.195122 18.0487805,35.195122 C17.5506341,35.195122 17.1463415,34.7908293 17.1463415,34.2926829 C17.1463415,33.7945366 17.5506341,33.3902439 18.0487805,33.3902439 C18.5469268,33.3902439 18.9512195,33.7945366 18.9512195,34.2926829 L18.9512195,34.2926829 Z" id="Stroke-5199" stroke="#FFFFFF"></path>
                                    </g>
                                </g>
                            </g>
                        </g>
                    </g>
                </g>
            </g>
        </g>
    </g>
</svg>