<svg width="26px" height="25px" viewBox="0 0 26 25" version="1.1" xmlns="http://www.w3.org/2000/svg" xmlns:xlink="http://www.w3.org/1999/xlink">
    <defs>
        <polygon id="path-1" points="0 0.0327219233 18.4051704 0.0327219233 18.4051704 21.5657194 0 21.5657194"></polygon>
        <polygon id="path-3" points="0.0132960887 0.0525399469 25.1296077 0.0525399469 25.1296077 15.4145894 0.0132960887 15.4145894"></polygon>
        <polygon id="path-5" points="0.123148599 0.0506789261 18.602962 0.0506789261 18.602962 18.3637159 0.123148599 18.3637159"></polygon>
    </defs>
    <g id="01-Navigation" stroke="none" stroke-width="1" fill="none" fill-rule="evenodd">
        <g id="1.1_c1_s1_navigation_education_tab_mobile" transform="translate(-203.000000, -53.000000)">
            <g id="Logo" transform="translate(203.000000, 53.000000)">
                <g id="Group">
                    <g id="Group-3" transform="translate(0.000000, 3.275150)">
                        <mask id="mask-2" fill="white">
                            <use xlink:href="#path-1"></use>
                        </mask>
                        <g id="Clip-2"></g>
                        <path d="M17.2378464,4.48758686 C15.6211373,1.82053443 12.6563977,0.0327219233 9.269216,0.0327219233 C4.31683023,0.0327219233 0.270483298,3.85237483 0.0133336837,8.65898504 C0.00882228696,8.73601405 0.00581468914,8.81304306 0.00431089022,8.89007207 C0.00142860897,8.98608103 -7.51899457e-05,9.08196674 -7.51899457e-05,9.17933141 L-7.51899457e-05,9.20841756 C-7.51899457e-05,9.26658987 -7.51899457e-05,9.32476218 0.00293240788,9.38281124 C0.0944135085,16.0455125 5.55069724,21.4363107 12.3165392,21.5657194 C7.29334954,21.433476 3.26166466,17.3855707 3.26166466,12.4118384 C3.26166466,7.35528446 7.42919271,3.2551227 12.5708065,3.2551227 C12.9483854,3.2551227 13.320325,3.27829303 13.6862494,3.32130603 C13.3931339,3.28704353 13.0960083,3.26621488 12.7953738,3.25943633 C15.476146,3.356801 17.7121697,5.16494916 18.4051704,7.60670714 C18.2116816,6.48319282 17.809666,5.43091492 17.2378464,4.48758686" id="Fill-1" fill="#B81D31" mask="url(#mask-2)"></path>
                    </g>
                    <g id="Group-6" transform="translate(0.000000, 0.070743)">
                        <mask id="mask-4" fill="white">
                            <use xlink:href="#path-3"></use>
                        </mask>
                        <g id="Clip-5"></g>
                        <path d="M25.1296202,12.1814662 L25.1296202,12.1812197 C25.1296202,12.1006165 25.1256101,12.0209994 25.1197202,11.9418752 C25.0099429,9.09685491 23.9278343,6.49524632 22.1841794,4.45798307 C22.0556046,4.30836192 21.9241475,4.16145219 21.7896829,4.01762363 C21.6550928,3.87515077 21.5162421,3.73415687 21.3743837,3.59759984 C21.3034545,3.52932133 21.2325254,3.46091957 21.1599671,3.39412001 C21.0861556,3.32719721 21.0137226,3.26187661 20.9399111,3.19643276 C20.8659744,3.13098891 20.7905338,3.06702402 20.7152185,3.00305914 C20.6397779,2.93921749 20.5629589,2.87660831 20.4861398,2.81560134 C20.390022,2.73857233 20.2940295,2.66450123 20.1950294,2.59030689 C20.1343762,2.54532195 20.0753521,2.50021376 20.0131951,2.45658453 C19.9334937,2.39853547 19.8521633,2.34036316 19.7708328,2.28514876 C19.6940137,2.23129008 19.6171947,2.1790336 19.5388718,2.12813283 C19.5255883,2.11938234 19.5108009,2.10927613 19.4945098,2.09904668 C19.4220768,2.05110382 19.34814,2.00463992 19.2728247,1.95805278 C19.188612,1.9057963 19.1042739,1.85341657 19.0186827,1.80399476 C18.8427382,1.70083751 18.6654153,1.60051493 18.4837063,1.50598493 C18.3993682,1.46099998 18.3151555,1.41737075 18.2294389,1.37522048 C18.1171553,1.32000608 18.0033678,1.26479169 17.8880766,1.21241196 C17.8216588,1.18049114 17.7536119,1.14992603 17.6840612,1.12083988 C17.5924548,1.08016856 17.5008483,1.0409762 17.4077381,1.00313955 C17.3161317,0.965302901 17.2245253,0.929068454 17.1327936,0.894189719 C17.1240214,0.889752848 17.1136201,0.88691818 17.1047226,0.882481309 C17.0176276,0.849081531 16.9304073,0.817160709 16.8418085,0.786595598 C16.7322818,0.747279991 16.6230057,0.709566588 16.5121006,0.674687853 C16.4293916,0.647080656 16.3466827,0.620952415 16.2638484,0.596179886 C16.1796357,0.570051646 16.0954229,0.545279116 16.0097064,0.52210879 C15.9387772,0.501773132 15.8692265,0.482793184 15.7998011,0.465415439 C15.362321,0.35054978 14.9160686,0.258977693 14.459415,0.192178136 C14.3574073,0.176156102 14.2540212,0.163091982 14.1505097,0.150027862 C13.9466196,0.123776375 13.7411004,0.103440717 13.5342028,0.0888976395 C13.4647774,0.083105058 13.395352,0.0787914335 13.3259266,0.0758335195 C13.0746669,0.0598114855 12.8219033,0.0525399469 12.5677613,0.0525399469 C5.81532825,0.0525399469 0.304406495,5.29088235 0.0132960887,11.8633672 C0.270445703,7.05675699 4.31679263,3.23710408 9.26917841,3.23710408 C13.1643935,3.23710408 16.49606,5.60084708 17.8677753,8.94772674 L12.9985997,8.94772674 L12.9985997,8.94784999 C11.1828878,8.94784999 9.71091934,10.3955024 9.71091934,12.1812197 C9.71091934,13.966937 11.1828878,15.4145894 12.9985997,15.4145894 L21.8950741,15.4145894 L21.8950741,15.4132337 C23.6860986,15.3852568 25.1293696,13.9496825 25.1296202,12.1815894 L25.1296202,12.1814662 Z" id="Fill-4" fill="#E21D48" mask="url(#mask-4)"></path>
                    </g>
                    <g id="Group-9" transform="translate(3.132914, 6.479557)">
                        <mask id="mask-6" fill="white">
                            <use xlink:href="#path-5"></use>
                        </mask>
                        <g id="Clip-8"></g>
                        <path d="M15.3986127,5.77288675 L15.3986127,5.77239377 L15.3941013,5.77239377 C15.3942266,5.77251701 15.3942266,5.77276351 15.3942266,5.77288675 L15.3986127,5.77288675 Z M16.6705759,10.0826907 C15.5288166,9.57762685 14.1982052,9.76212673 13.2341448,10.5475761 C12.4000376,11.2271569 11.1552681,11.8740773 9.42928286,11.8740773 C6.13220374,11.8740773 3.46020371,9.24621724 3.46020371,6.00360404 C3.46020371,3.02079429 5.72580209,0.486971237 8.65670617,0.0999774922 C8.67011505,0.0983752888 8.68364924,0.096649839 8.69705811,0.0950476356 C8.78352655,0.084201951 8.87037093,0.074711977 8.9578419,0.0676869314 C8.88992032,0.0727400344 8.82262532,0.080627805 8.75533032,0.0878993435 C8.77462907,0.0858041544 8.79355187,0.0827229941 8.81297594,0.0807510514 C8.86034561,0.0764374269 8.90909376,0.0721238023 8.9578419,0.0676869314 C9.0583458,0.0604153928 9.16035349,0.0546228113 9.26223587,0.0516648973 C4.19907024,0.140402317 0.123148599,4.20568533 0.123148599,9.20702488 C0.123148599,13.5324811 3.1721009,17.1574047 7.27007826,18.1137968 C7.88488138,18.2591044 8.52336933,18.3434049 9.17802313,18.3609059 C9.26223587,18.3623849 9.34795241,18.3637406 9.43229046,18.3637406 C9.51938548,18.3637406 9.60510202,18.3623849 9.69232236,18.3609059 C9.71011731,18.3609059 9.72929075,18.3594269 9.74696038,18.3594269 C9.79721233,18.357948 9.84746428,18.3551133 9.89922002,18.3536344 C9.91250358,18.3536344 9.92578714,18.3536344 9.93919601,18.3521554 C9.99696695,18.3506764 10.0558657,18.3478418 10.1150152,18.3448839 C10.1903304,18.3405702 10.265771,18.3361334 10.3410863,18.3303408 C10.4091332,18.3260272 10.4785586,18.3202346 10.5464801,18.314442 C10.5568814,18.312963 10.5672827,18.312963 10.5760549,18.3114841 C13.5352805,18.0012729 15.7883472,16.7932115 17.4030513,15.5026983 C19.287186,13.9968736 18.8846692,11.0620067 16.6705759,10.0826907 Z M9.43316768,0.0506789261 L9.4325411,0.0506789261 C9.43279173,0.0506789261 9.43304236,0.0508021725 9.43316768,0.0508021725 L9.43316768,0.0506789261 Z" id="Fill-7" fill="#E93F50" mask="url(#mask-6)"></path>
                    </g>
                </g>
            </g>
        </g>
    </g>
</svg>